<svg version="1.1" id="Layer_1" xmlns="http://www.w3.org/2000/svg"
  xmlns:xlink="http://www.w3.org/1999/xlink" x="0px" y="0px" viewBox="-49 141 512 512"
  style="enable-background:new -49 141 512 512;" xml:space="preserve">
  <style type="text/css">
    .st0 {
      fill: #FFC275;
    }

    .st1 {
      fill: #222222;
    }
  </style>
  <polygon class="st0" points="95,341 15,341 15,557 399,557 399,341 319,341 319,405 191,453 95,405 " />
  <g>
    <path class="st1"
      d="M439,581V333c0-17.6-14.4-32-32-32h-39c-0.2-0.7-0.4-1.4-0.6-2.2l-6.9,2.2H327v-12.9l-103.5-51.8L87,287.5V301
              H50.1l-3.8-1.2c-0.1,0.4-0.2,0.8-0.3,1.2H7c-17.6,0-32,14.4-32,32v248h-16v32c0,17.6,14.4,32,32,32h432c17.6,0,32-14.4,32-32v-32
              H439z M231,352v-17.5l80-30V392L231,352z M199,346.5l16-6v10.9l-16,6V346.5z M231,317.5V258l68,34L231,317.5z M215,323.5l-23.5,8.8
              L115,294l300-37.5V323.5z M183,346v17.5l-80,30v-87.5L183,346z M183,380.5V440l-68-34L183,380.5z M199,374.5l23.5-8.8L299,404
              l-100,37.5V374.5z M-9,333c0-8.8,7.2-16,16-16h35.2c-0.5,2.4-1,4.9-1.4,7.3l15.8,2.3c0.5-3.2,1.1-6.4,1.8-9.6H87v92.9l103.5,51.8
              L327,410.5V317h28.6c0.6,2.9,1.2,5.8,1.7,8.7l15.8-2.4c-0.3-2.1-0.8-4.2-1.2-6.3H407c8.8,0,16,7.2,16,16v248H231v16h-48v-16H-9V333
              z M439,613c0,8.8-7.2,16-16,16H-9c-8.8,0-16-7.2-16-16v-16h192c0,8.8,7.2,16,16,16h48c8.8,0,16-7.2,16-16h192V613z" />
    <path class="st1" d="M55,349.3l-16,0c0,8.4,0.7,16.8,1.9,25l15.8-2.4C55.6,364.5,55,356.9,55,349.3z" />
    <path class="st1"
      d="M81.2,263.7l-13.2-9c-4.7,6.9-8.9,14.2-12.5,21.8l14.4,6.9C73.1,276.6,76.9,269.9,81.2,263.7z" />
    <path class="st1"
      d="M111.9,230.4l-10-12.5c-6.5,5.2-12.7,11-18.4,17.1l11.8,10.9C100.5,240.3,106,235.1,111.9,230.4z" />
    <path class="st1"
      d="M358.1,275.5c-3.6-7.5-7.9-14.8-12.6-21.7l-13.2,9.1c4.3,6.2,8.1,12.8,11.4,19.6L358.1,275.5z" />
    <path class="st1"
      d="M290.5,203.2c-7.2-4.2-14.9-7.8-22.7-10.8l-5.8,14.9c7,2.7,13.9,6,20.5,9.8L290.5,203.2z" />
    <path class="st1"
      d="M243.8,185c-8.1-1.8-16.5-3-24.8-3.6l-1.1,16c7.6,0.5,15.1,1.6,22.5,3.3L243.8,185z" />
    <path class="st1"
      d="M195.2,197.5l-1.2-16c-8.3,0.6-16.7,1.9-24.8,3.8l3.6,15.6C180.1,199.2,187.6,198,195.2,197.5z" />
    <path class="st1"
      d="M151,207.6l-5.9-14.9c-7.8,3.1-15.4,6.8-22.6,11l8.1,13.8C137.2,213.8,144,210.4,151,207.6z" />
    <path class="st1"
      d="M329.8,234.3c-5.7-6.1-11.9-11.8-18.5-17l-9.9,12.5c5.9,4.7,11.6,9.9,16.7,15.4L329.8,234.3z" />
    <path class="st1"
      d="M367.6,398.5l-15.3-4.7c-2.2,7.2-5,14.3-8.3,21.2l14.4,6.9C362,414.3,365.1,406.5,367.6,398.5z" />
    <path class="st1"
      d="M345.8,443.6l-13.2-9c-4.3,6.2-9,12.2-14.2,17.8l11.7,10.9C335.9,457.1,341.1,450.5,345.8,443.6z" />
    <path class="st1"
      d="M311.8,480.3l-10-12.5c-5.9,4.7-12.2,9-18.7,12.8l8,13.8C298.3,490.3,305.3,485.5,311.8,480.3z" />
    <path class="st1" d="M219.7,516.5l-1.2-16c-3.7,0.3-7.5,0.4-11.3,0.4c-3.8,0-7.7-0.1-11.5-0.4l-1.2,16c4.2,0.3,8.4,0.5,12.6,0.4
              C211.5,517,215.6,516.8,219.7,516.5z" />
    <path class="st1"
      d="M268.5,505.4l-5.9-14.9c-7,2.8-14.3,5-21.7,6.7l3.6,15.6C252.7,510.9,260.8,508.4,268.5,505.4z" />
    <path class="st1"
      d="M68.3,443.9c4.7,6.9,10,13.5,15.7,19.6l11.7-10.9c-5.2-5.5-9.9-11.5-14.2-17.7L68.3,443.9z" />
    <path class="st1"
      d="M145.8,505.5c7.8,3,15.8,5.5,24,7.4l3.5-15.6c-7.4-1.7-14.7-3.9-21.7-6.7L145.8,505.5z" />
    <path class="st1"
      d="M102.4,480.5c6.5,5.2,13.5,10,20.8,14.1l8-13.9c-6.5-3.8-12.9-8.1-18.8-12.8L102.4,480.5z" />
    <path class="st1"
      d="M61.8,394.1l-15.3,4.8c2.5,8,5.6,15.8,9.2,23.3l14.4-7C66.8,408.4,64,401.3,61.8,394.1z" />
    <path class="st1"
      d="M375,349v-0.7l-16,0.7c0,7.6-0.6,15.2-1.7,22.6l15.8,2.4C374.4,365.8,375,357.4,375,349z" />
  </g>
</svg>