<svg version="1.1" id="Layer_1" xmlns="http://www.w3.org/2000/svg"
  xmlns:xlink="http://www.w3.org/1999/xlink" x="0px" y="0px" viewBox="-49 141 512 512"
  style="enable-background:new -49 141 512 512;" xml:space="preserve">
  <style type="text/css">
    .st0 {
      fill: #FFC275;
    }

    .st1 {
      fill: #222222;
    }
  </style>
  <path class="st0" d="M387.3,325c-6,5.7-12.8,10.5-20.3,14.3V357h-4c6.6,0,12,5.4,12,12s-5.4,12-12,12c6.6,0,12,5.4,12,12
            s-5.4,12-12,12h-72c-6.6,0-12-5.4-12-12s5.4-12,12-12c-6.6,0-12-5.4-12-12s5.4-12,12-12h-4v-17.7c-7.4-3.8-14.2-8.7-20.3-14.3H-17
            v71.1l71.4,67.2L23,433.7V365h192v128H86l127.5,120H431c13.2,0,24-10.8,24-24V325H387.3z" />
  <g>
    <circle class="st1" cx="23" cy="301" r="8" />
    <circle class="st1" cx="55" cy="301" r="8" />
    <circle class="st1" cx="87" cy="301" r="8" />
    <path class="st1" d="M106.2,501H223V357H15v58.2l-30.9-29c-7.8-7.3-14.4-5.6-16.9-4.6c-2.5,1.1-8.3,4.7-8.3,15.4v224
              c0,13.2,10.8,24,24,24h240c10.5,0,14.1-5.2,15.3-8.3c1.2-3.1,2.2-9.3-5.5-16.5L106.2,501z M31,373h176v112H89.2L31,430.2V373z
                M-17,629c-4.4,0-8-3.6-8-8v-8h16v-16h-16v-16h16v-16h-16v-16h16v-16h-16v-16h16v-16h-16v-16h16v-16h-16v-16h16v-16h-16v-37.5
              L218.8,629H-17z" />
    <path class="st1" d="M15,492.1V589h103L15,492.1z M31,529.1L77.6,573H31V529.1z" />
    <path class="st1"
      d="M455,197v-48h-48v16H247v-16h-48v48h48v-16h27c-25.9,17.2-43,46.6-43,80H7c-13.2,0-24,10.8-24,24v56h8h283.4
              c1.5,1,3,2.1,4.6,3.1v9c-4.8,3.7-8,9.4-8,15.9c0,4.5,1.6,8.6,4.1,12c-2.5,3.3-4.1,7.5-4.1,12c0,11,9,20,20,20h72c11,0,20-9,20-20
              c0-4.5-1.6-8.6-4.1-12c2.5-3.4,4.1-7.5,4.1-12c0-6.5-3.2-12.2-8-15.9v-9c1.6-0.9,3-2.1,4.6-3.1H447h8v-56c0-13.2-10.8-24-24-24h-8
              c0-33.4-17.1-62.8-43-80h27v16L455,197L455,197z M215,181v-16h16v16H215z M-1,285c0-4.4,3.6-8,8-8h225.5c3,18.1,11.1,34.6,23.2,48
              H-1V285z M327,277c-8.8,0-16-7.2-16-16s7.2-16,16-16s16,7.2,16,16S335.8,277,327,277z M363,365c2.2,0,4,1.8,4,4s-1.8,4-4,4h-72
              c-2.2,0-4-1.8-4-4s1.8-4,4-4H363z M363,397h-72c-2.2,0-4-1.8-4-4s1.8-4,4-4h72c2.2,0,4,1.8,4,4S365.2,397,363,397z M431,277
              c4.4,0,8,3.6,8,8v40h-40.7c12.1-13.4,20.2-29.9,23.2-48H431z M407,261c0,30.1-16.7,57.4-43.6,71.2l-4.4,2.2V349h-24v-57.1
              c13.8-3.6,24-16,24-30.9c0-17.6-14.4-32-32-32s-32,14.4-32,32c0,14.9,10.2,27.3,24,30.9V349h-24v-14.6l-4.4-2.2
              C263.7,318.4,247,291.1,247,261c0-44.1,35.9-80,80-80S407,216.9,407,261z M439,165v16h-16v-16H439z" />
    <rect x="239" y="437" class="st1" width="184" height="16" />
    <rect x="239" y="469" class="st1" width="184" height="16" />
    <rect x="239" y="501" class="st1" width="184" height="16" />
    <rect x="239" y="533" class="st1" width="184" height="16" />
  </g>
</svg>