<svg version="1.1" id="Layer_1" xmlns="http://www.w3.org/2000/svg"
  xmlns:xlink="http://www.w3.org/1999/xlink" x="0px" y="0px" viewBox="-49 141 512 512"
  style="enable-background:new -49 141 512 512;" xml:space="preserve">
  <style type="text/css">
    .st0 {
      fill: #FFC275;
    }

    .st1 {
      fill: #222222;
    }
  </style>
  <polygon class="st0"
    points="95,601.1 415,601.1 415,329.1 311,329.1 311,505.1 295,529.1 279,505.1 279,329.1 95,329.1 " />
  <g>
    <path class="st1" d="M415,289.1h-96v-48c0-13.2-10.8-24-24-24s-24,10.8-24,24v48H31c-22.1,0-40,17.9-40,40v128h-8c-4.4,0-8-3.6-8-8
              v-208c0-4.4,3.6-8,8-8h224c13.2,0,24-10.8,24-24v-56h-16v56c0,4.4-3.6,8-8,8H-17c-13.2,0-24,10.8-24,24v208c0,13.2,10.8,24,24,24h8
              v128c0,22.1,17.9,40,40,40h384c22.1,0,40-17.9,40-40v-272C455,307.1,437.1,289.1,415,289.1z M295,522.7l-8-12v-5.6h16v5.6
              L295,522.7z M303,489.1h-16v-96h16V489.1z M295,233.1c4.4,0,8,3.6,8,8v136h-16v-136C287,236.7,290.6,233.1,295,233.1z M7,345.1h80
              v120v120H7v-120V345.1z M439,601.1c0,13.2-10.8,24-24,24H31c-13.2,0-24-10.8-24-24h96v-256v-8v-8H7c0-13.2,10.8-24,24-24h240v210.4
              l16,24v21.6h16v-21.6l16-24V305.1h96c13.2,0,24,10.8,24,24V601.1z" />
    <path class="st1" d="M47,505.1c22.1,0,40-17.9,40-40s-17.9-40-40-40s-40,17.9-40,40S24.9,505.1,47,505.1z M47,441.1
              c13.2,0,24,10.8,24,24s-10.8,24-24,24s-24-10.8-24-24S33.8,441.1,47,441.1z" />
    <circle class="st1" cx="47" cy="465.1" r="8" />
    <rect x="23" y="393.1" class="st1" width="48" height="16" />
    <rect x="23" y="361.1" class="st1" width="48" height="16" />
    <rect x="23" y="553.1" class="st1" width="48" height="16" />
    <rect x="23" y="521.1" class="st1" width="48" height="16" />
  </g>
</svg>