<svg xmlns="http://www.w3.org/2000/svg" width="1431.586" height="2301" viewBox="0 0 1431.586 2301">
  <g id="Group_161" data-name="Group 161" transform="translate(-604.707 -5537.14)">
    <g id="Group_36295" data-name="Group 36295" transform="translate(230.886 7072)" opacity="0.05">
      <path id="Path_38909" data-name="Path 38909" d="M.01,136.96V34.57L354.2,239.23l.12-.12L708.373,35.083l-.154,102L354.3,341.278Z" transform="translate(374.93 423.707)" fill="none" stroke="#111" stroke-width="2"/>
      <path id="Path_38910" data-name="Path 38910" d="M354.293,102.151l.24-.12L605.973,247.317V263.5l-74.756,42.948L354.31,204.3l-88.462,51.024L531.2,408.619h0l.479.24L708.586,306.708V204.318L354.293,0,0,204.2v102.27L354.276,510.684l88.462-51.024L102.031,262.888V247.779L354.293,102.151" transform="translate(374.821 50)" fill="none" stroke="#111" stroke-width="2"/>
    </g>
    <g id="Group_26" data-name="Group 26" transform="translate(0 1719.213)">
      <g id="Group_36295-2" data-name="Group 36295" transform="translate(230.886 4293.507)" opacity="0.05">
        <path id="Path_38909-2" data-name="Path 38909" d="M.01,136.96V34.57L354.2,239.23l.12-.12L708.373,35.083l-.154,102L354.3,341.278Z" transform="translate(374.93 423.707)" fill="none" stroke="#111" stroke-width="2"/>
        <path id="Path_38910-2" data-name="Path 38910" d="M354.293,102.151l.24-.12L605.973,247.317V263.5l-74.756,42.948L354.31,204.3l-88.462,51.024L531.2,408.619h0l.479.24L708.586,306.708V204.318L354.293,0,0,204.2v102.27L354.276,510.684l88.462-51.024L102.031,262.888V247.779L354.293,102.151" transform="translate(374.821 50)" fill="none" stroke="#111" stroke-width="2"/>
      </g>
      <g id="Group_36295-3" data-name="Group 36295" transform="translate(951.886 4293.507)" opacity="0.05">
        <path id="Path_38909-3" data-name="Path 38909" d="M.01,136.96V34.57L354.2,239.23l.12-.12L708.373,35.083l-.154,102L354.3,341.278Z" transform="translate(374.93 423.707)" fill="none" stroke="#111" stroke-width="2"/>
        <path id="Path_38910-3" data-name="Path 38910" d="M354.293,102.151l.24-.12L605.973,247.317V263.5l-74.756,42.948L354.31,204.3l-88.462,51.024L531.2,408.619h0l.479.24L708.586,306.708V204.318L354.293,0,0,204.2v102.27L354.276,510.684l88.462-51.024L102.031,262.888V247.779L354.293,102.151" transform="translate(374.821 50)" fill="none" stroke="#111" stroke-width="2"/>
      </g>
      <g id="Group_36295-4" data-name="Group 36295" transform="translate(592.179 3769.082)" opacity="0.05">
        <path id="Path_38909-4" data-name="Path 38909" d="M.01,136.96V34.57L354.2,239.23l.12-.12L708.373,35.083l-.154,102L354.3,341.278Z" transform="translate(374.93 423.707)" fill="none" stroke="#111" stroke-width="2"/>
        <path id="Path_38910-4" data-name="Path 38910" d="M354.293,102.151l.24-.12L605.973,247.317V263.5l-74.756,42.948L354.31,204.3l-88.462,51.024L531.2,408.619h0l.479.24L708.586,306.708V204.318L354.293,0,0,204.2v102.27L354.276,510.684l88.462-51.024L102.031,262.888V247.779L354.293,102.151" transform="translate(374.821 50)" fill="none" stroke="#111" stroke-width="2"/>
      </g>
      <g id="Group_36295-5" data-name="Group 36295" transform="translate(592.179 4819.507)" opacity="0.05">
        <path id="Path_38909-5" data-name="Path 38909" d="M.01,136.96V34.57L354.2,239.23l.12-.12L708.373,35.083l-.154,102L354.3,341.278Z" transform="translate(374.93 423.707)" fill="none" stroke="#111" stroke-width="2"/>
        <path id="Path_38910-5" data-name="Path 38910" d="M354.293,102.151l.24-.12L605.973,247.317V263.5l-74.756,42.948L354.31,204.3l-88.462,51.024L531.2,408.619h0l.479.24L708.586,306.708V204.318L354.293,0,0,204.2v102.27L354.276,510.684l88.462-51.024L102.031,262.888V247.779L354.293,102.151" transform="translate(374.821 50)" fill="none" stroke="#111" stroke-width="2"/>
      </g>
    </g>
  </g>
</svg>
