<?xml version="1.0" encoding="utf-8"?>
<!-- Generator: Adobe Illustrator 16.0.3, SVG Export Plug-In . SVG Version: 6.00 Build 0)  -->
<!DOCTYPE svg PUBLIC "-//W3C//DTD SVG 1.1//EN" "http://www.w3.org/Graphics/SVG/1.1/DTD/svg11.dtd">
<svg version="1.1" id="Calque_1" xmlns="http://www.w3.org/2000/svg" xmlns:xlink="http://www.w3.org/1999/xlink" x="0px" y="0px"
	 width="283.46px" height="283.46px" viewBox="0 0 283.46 283.46" enable-background="new 0 0 283.46 283.46" xml:space="preserve">
<polyline fill="#6F665B" points="110.968,149.546 110.097,147.641 109.575,147.641 110.76,150.243 111.152,150.243 112.322,147.641 
	111.826,147.641 110.968,149.546 "/>
<path fill="#6F665B" d="M116.332,147.585c-0.871,0-1.479,0.561-1.479,1.363c0,0.795,0.622,1.369,1.479,1.369
	c0.859,0,1.486-0.565,1.486-1.35C117.818,148.151,117.207,147.585,116.332,147.585 M116.316,149.892
	c-0.569,0-0.966-0.39-0.966-0.947c0-0.565,0.379-0.932,0.966-0.932c0.622,0,1.006,0.369,1.006,0.964
	C117.322,149.012,117.312,149.892,116.316,149.892"/>
<rect x="120.767" y="147.641" fill="#6F665B" width="0.492" height="2.603"/>
<polyline fill="#6F665B" points="126.498,149.483 124.927,147.641 124.421,147.641 124.421,150.243 124.884,150.243 
	124.884,148.351 126.502,150.243 126.966,150.243 126.966,147.641 126.498,147.641 126.498,149.483 "/>
<polyline fill="#6F665B" points="130.57,149.815 130.57,149.126 131.901,149.126 131.901,148.696 130.57,148.696 130.57,148.069 
	132.015,148.069 132.279,147.641 130.085,147.641 130.085,150.243 132.279,150.243 132.066,149.815 130.57,149.815 "/>
<polyline fill="#6F665B" points="150.288,149.815 150.288,149.126 151.619,149.126 151.619,148.696 150.288,148.696 
	150.288,148.069 151.733,148.069 152,147.641 149.806,147.641 149.806,150.243 152,150.243 151.785,149.815 150.288,149.815 "/>
<path fill="#6F665B" d="M141.091,148.388c0-0.466-0.361-0.747-0.94-0.747h-1.486v2.603h0.488v-1.115h0.867l0.727,1.115h0.564
	l-0.79-1.194C140.816,148.995,141.091,148.737,141.091,148.388 M139.152,148.719v-0.667h0.975c0.328,0,0.474,0.143,0.474,0.33
	c0,0.205-0.146,0.337-0.474,0.337H139.152z"/>
<polyline fill="#6F665B" points="146.202,148.692 144.631,148.692 144.631,147.641 144.146,147.641 144.146,150.243 
	144.631,150.243 144.631,149.118 146.202,149.118 146.202,150.243 146.688,150.243 146.688,147.641 146.202,147.641 
	146.202,148.692 "/>
<polyline fill="#6F665B" points="160.982,147.641 160.492,147.641 160.492,150.243 162.406,150.243 162.406,149.817 
	160.982,149.817 160.982,147.641 "/>
<path fill="#6F665B" d="M167.264,148.832c0.198-0.107,0.337-0.31,0.337-0.529c0-0.392-0.293-0.662-1.121-0.662h-1.245v2.603h1.35
	c0.922,0,1.15-0.45,1.15-0.785C167.734,149.19,167.56,148.957,167.264,148.832 M165.722,148.047h0.813
	c0.415,0,0.58,0.118,0.58,0.286c0,0.154-0.109,0.326-0.594,0.326h-0.8V148.047z M166.624,149.832h-0.902v-0.774h0.831
	c0.513,0,0.687,0.16,0.687,0.402C167.239,149.677,167.029,149.832,166.624,149.832"/>
<path fill="#6F665B" d="M177.398,147.741c0.213-0.053,0.318-0.159,0.318-0.33c0-0.2-0.167-0.34-0.521-0.34h-0.629v1.211h0.252
	v-0.491h0.047c0.346,0,0.371,0.048,0.633,0.491h0.297c0,0-0.171-0.344-0.307-0.476C177.46,147.778,177.433,147.76,177.398,147.741
	 M177.158,147.594h-0.34v-0.33h0.34c0.205,0,0.278,0.065,0.278,0.157C177.437,147.522,177.365,147.594,177.158,147.594"/>
<path fill="#6F665B" d="M177.11,146.437c-0.693,0-1.256,0.562-1.256,1.256c0,0.695,0.563,1.258,1.256,1.258
	c0.696,0,1.26-0.563,1.26-1.258C178.37,146.998,177.807,146.437,177.11,146.437 M177.11,148.731c-0.573,0-1.039-0.461-1.039-1.039
	c0-0.576,0.466-1.039,1.039-1.039c0.576,0,1.041,0.463,1.041,1.039C178.151,148.271,177.687,148.731,177.11,148.731"/>
<path fill="#6F665B" d="M155.938,147.641l-1.417,2.603h0.516l0.371-0.676h1.449l0.368,0.676h0.532l-1.41-2.603H155.938
	 M155.615,149.187l0.52-0.949l0.516,0.949H155.615z"/>
<path fill="#6F665B" d="M171.701,147.641l-1.415,2.603h0.518l0.368-0.676h1.449l0.368,0.676h0.532l-1.41-2.603H171.701
	 M171.381,149.187l0.517-0.949l0.517,0.949H171.381z"/>
<path fill="#6F665B" d="M105.652,147.641l-1.414,2.603h0.515l0.372-0.676h1.447l0.369,0.676h0.532l-1.41-2.603H105.652
	 M105.332,149.187l0.519-0.949l0.519,0.949H105.332z"/>
<path fill="#6F665B" d="M117.017,139.846c-0.953,0-1.729,0.223-1.729,0.494s0.776,0.494,1.729,0.494s1.727-0.223,1.727-0.494
	S117.97,139.846,117.017,139.846"/>
<polyline fill="#6F665B" points="131.436,144.431 138.149,144.431 138.149,143.63 132.48,143.63 132.48,139.118 137.969,139.118 
	137.969,138.319 132.48,138.319 132.48,134.777 138.149,134.777 138.149,133.976 131.436,133.976 131.436,144.431 "/>
<polyline fill="#6F665B" points="160.938,144.431 160.938,133.431 154.869,142.853 148.692,133.426 148.692,144.431 
	149.609,144.431 149.609,136.584 154.794,144.534 159.926,136.59 159.926,144.431 160.938,144.431 "/>
<path fill="#6F665B" d="M126.937,134.683c-1.574-0.799-3.479-0.707-4.78-0.707h-1.861v10.479h1.861c1.301,0,3.206,0.093,4.78-0.709
	c1.697-0.864,2.912-2.466,2.912-4.53C129.849,137.147,128.634,135.545,126.937,134.683 M126.158,143.183
	c-1.051,0.421-1.875,0.47-4.817,0.472v-8.882c2.942,0.005,3.767,0.055,4.817,0.474c1.558,0.622,2.643,2.067,2.643,3.969
	C128.801,141.115,127.716,142.564,126.158,143.183"/>
<path fill="#6F665B" d="M115.641,144.431l-5.801-10.9l-5.816,10.9h1.104l1.92-3.659h5.498l1.914,3.659H115.641 M107.468,139.972
	l2.332-4.449l2.326,4.449H107.468z"/>
<path fill="#6F665B" d="M161.95,144.431h1.104l1.918-3.659h5.501l1.915,3.659h1.177l-5.798-10.9L161.95,144.431 M165.392,139.972
	l2.334-4.449l2.326,4.449H165.392z"/>
<path fill="#6F665B" d="M146.016,138.541c0.471-0.465,0.703-1.056,0.703-1.755c0-0.889-0.389-1.734-1.409-2.281
	c-0.958-0.527-2.111-0.527-3.127-0.527h-2.095v10.453h1.031v-4.861h0.828l4.18,4.861h1.281l-4.262-4.882
	C144.385,139.502,145.396,139.15,146.016,138.541 M141.119,138.773v-3.996c0,0,0.28-0.005,1.002-0.009
	c0.719-0.002,1.535,0.002,2.176,0.229c0.847,0.285,1.375,0.968,1.375,1.77c0,0.628-0.313,1.186-0.889,1.541
	c-0.649,0.428-1.454,0.47-2.338,0.47C141.563,138.778,141.119,138.773,141.119,138.773"/>
</svg>
