<?xml version="1.0" encoding="utf-8"?>
<!-- Generator: Adobe Illustrator 16.0.3, SVG Export Plug-In . SVG Version: 6.00 Build 0)  -->
<!DOCTYPE svg PUBLIC "-//W3C//DTD SVG 1.1//EN" "http://www.w3.org/Graphics/SVG/1.1/DTD/svg11.dtd">
<svg version="1.1" id="Layer_1" xmlns="http://www.w3.org/2000/svg" xmlns:xlink="http://www.w3.org/1999/xlink" x="0px" y="0px"
	 width="612px" height="792px" viewBox="0 0 612 792" enable-background="new 0 0 612 792" xml:space="preserve">
<rect x="217.173" y="239.294" fill="none" width="200" height="200"/>
<g>
	<g>
		<path d="M251.136,332.568l6.611,0.707c-0.426,3.864-1.957,7.043-4.596,9.541c-2.639,2.498-6.104,3.745-10.394,3.745
			c-3.615,0-6.55-0.884-8.801-2.657c-2.251-1.771-3.987-4.174-5.205-7.208c-1.217-3.033-1.826-6.378-1.826-10.035
			c0-5.879,1.43-10.66,4.292-14.345c2.86-3.685,6.794-5.527,11.801-5.527c3.924,0,7.189,1.179,9.8,3.534
			c2.609,2.356,4.252,5.73,4.929,10.12l-6.611,0.679c-1.217-5.824-3.904-8.735-8.06-8.735c-2.669,0-4.743,1.212-6.221,3.633
			c-1.479,2.421-2.216,5.932-2.216,10.529c0,4.675,0.792,8.203,2.376,10.587c1.584,2.384,3.682,3.575,6.292,3.575
			c2.089,0,3.866-0.8,5.336-2.402C250.111,336.705,250.942,334.793,251.136,332.568z"/>
		<path d="M293.755,345.905h-7.625l-3.161-9.187h-15.222l-3.103,9.187h-6.089l13.135-38.585h8.787L293.755,345.905z M281.057,331.15
			l-5.77-17.215l-5.771,17.215H281.057z"/>
		<path d="M328.918,345.905h-7.538l-6.146-15.858H305.2v15.858h-7.131V307.32h17.165c4.774,0,8.283,1.051,10.524,3.153
			c2.241,2.102,3.363,4.819,3.363,8.154c0,4.957-2.377,8.367-7.131,10.233L328.918,345.905z M305.2,324.479h8.874
			c2.57,0,4.482-0.527,5.74-1.583c1.257-1.054,1.885-2.506,1.885-4.354c0-1.696-0.618-3.066-1.855-4.112s-2.968-1.57-5.189-1.57
			H305.2V324.479z"/>
		<path d="M342.908,345.905h-7.133V307.32h7.133V345.905z"/>
		<path d="M364.995,345.905h-7.654v-32.621h-10.526v-5.964h28.705v5.964h-10.524V345.905z"/>
		<path d="M407.421,345.905h-7.626l-3.161-9.187h-15.221l-3.103,9.187h-6.089l13.134-38.585h8.786L407.421,345.905z M394.723,331.15
			l-5.771-17.215l-5.771,17.215H394.723z"/>
	</g>
	<g>
		<path d="M280.351,371.534h-3.208v-17.343h7.29c2.079,0,3.62,0.51,4.625,1.531c1.004,1.021,1.506,2.226,1.506,3.613
			c0,1.587-0.544,2.868-1.63,3.851c-1.088,0.982-2.466,1.473-4.135,1.473h-4.448V371.534z M280.351,361.979h3.796
			c0.991,0,1.747-0.238,2.269-0.711c0.522-0.475,0.783-1.104,0.783-1.893c0-0.711-0.242-1.322-0.724-1.831
			c-0.482-0.507-1.354-0.763-2.615-0.763h-3.509V361.979z"/>
		<path d="M308.092,371.534h-3.43l-1.421-4.13h-6.848l-1.396,4.13h-2.739l5.908-17.343h3.953L308.092,371.534z M302.379,364.901
			l-2.595-7.737l-2.595,7.737H302.379z"/>
		<path d="M326.255,371.534h-3.393l-2.765-7.128h-4.513v7.128h-3.209v-17.343h7.722c2.148,0,3.727,0.472,4.733,1.417
			c1.01,0.944,1.514,2.167,1.514,3.665c0,2.228-1.069,3.761-3.208,4.599L326.255,371.534z M315.585,361.903h3.992
			c1.155,0,2.016-0.236,2.58-0.712c0.565-0.474,0.848-1.127,0.848-1.955c0-0.764-0.277-1.381-0.834-1.85
			c-0.557-0.471-1.336-0.705-2.335-0.705h-4.251V361.903z"/>
		<path d="M334.896,371.534h-3.209v-17.343h3.209V371.534z"/>
		<path d="M339.102,367.354l3.117-0.648c0.374,1.719,1.809,2.58,4.304,2.58c1.14,0,2.016-0.219,2.629-0.662
			c0.612-0.439,0.92-0.986,0.92-1.64c0-0.473-0.141-0.912-0.418-1.313c-0.278-0.403-0.874-0.718-1.787-0.948l-3.403-0.864
			c-1.166-0.295-2.027-0.633-2.583-1.009c-0.557-0.377-1.003-0.907-1.337-1.594c-0.336-0.686-0.502-1.418-0.502-2.198
			c0-1.55,0.591-2.792,1.772-3.73c1.183-0.934,2.695-1.403,4.54-1.403c1.529,0,2.897,0.326,4.102,0.978
			c1.203,0.652,1.972,1.576,2.303,2.771l-3.052,0.736c-0.47-1.312-1.565-1.969-3.286-1.969c-1.002,0-1.765,0.205-2.29,0.61
			c-0.527,0.406-0.79,0.923-0.79,1.549c0,0.991,0.826,1.687,2.479,2.083l3.024,0.737c1.834,0.448,3.064,1.112,3.691,1.988
			c0.625,0.876,0.939,1.844,0.939,2.903c0,1.704-0.659,3.044-1.977,4.021c-1.317,0.977-3.023,1.466-5.119,1.466
			c-1.766,0-3.311-0.359-4.637-1.08C340.417,370.001,339.536,368.878,339.102,367.354z"/>
	</g>
</g>
</svg>
