<?xml version="1.0" encoding="utf-8"?>
<!-- Generator: Adobe Illustrator 25.1.0, SVG Export Plug-In . SVG Version: 6.00 Build 0)  -->
<svg version="1.1" id="Calque_1" xmlns="http://www.w3.org/2000/svg" xmlns:xlink="http://www.w3.org/1999/xlink" x="0px" y="0px"
	 viewBox="0 0 103.09 38.97" style="enable-background:new 0 0 103.09 38.97;" xml:space="preserve">
<style type="text/css">
	.st0{display:none;}
	.st1{display:inline;}
	.st2{fill:#3C2432;}
	.st3{display:inline;fill:#3C2432;}
	.st4{display:inline;fill:#020203;}
	.st5{fill:#3B2331;}
</style>
<g class="st0">
	<g class="st1">
		<path class="st2" d="M80.5,29.05h0.53c0.59,0,0.75-0.22,0.75-0.39c0-0.18-0.16-0.39-0.75-0.39H80.5v48.82V29.05z M80.5,30.25
			h-0.53v-2.29h1.06c0.86,0,1.27,0.27,1.27,0.69s-0.41,0.69-1.27,0.69H80.5v48.96L80.5,30.25z"/>
	</g>
	<path class="st3" d="M85.85,29.26l-0.47-0.88l0,0l-0.47,0.88H85.85z M86.44,30.25l-0.41-0.67h-1.31l-0.39,0.67h-0.57l1.37-2.29
		h0.47l1.39,2.29H86.44z"/>
	<g class="st1">
		<path class="st2" d="M89.23,29.15h0.35c0.22,0,1,0,1-0.45c0-0.2-0.2-0.43-0.8-0.43h-0.55v48.92V29.15z M90.44,30.25l-1.2-1.06l0,0
			v1.06h-0.53v-2.27h1.12c0.51,0,0.76,0.08,0.98,0.2c0.24,0.14,0.33,0.35,0.33,0.55c0,0.61-0.8,0.71-1.04,0.71l1.02,0.84h-0.69
			V30.25z"/>
	</g>
	<rect x="92.97" y="27.95" class="st4" width="0.53" height="2.29"/>
	<g class="st1">
		<path class="st2" d="M95.81,29.56c0,0.08,0.06,0.41,0.59,0.41c0.33,0,0.59-0.14,0.59-0.39s-0.33-0.31-0.59-0.37
			c-0.49-0.12-0.61-0.16-0.76-0.25c-0.16-0.12-0.24-0.27-0.24-0.43c0-0.27,0.33-0.63,1.02-0.63c0.61,0,1.04,0.25,1.04,0.65h-0.53
			c0-0.25-0.29-0.33-0.51-0.33c-0.31,0-0.49,0.18-0.49,0.31c0,0.22,0.33,0.27,0.49,0.31c0.45,0.12,1.12,0.2,1.12,0.75
			c0,0.39-0.45,0.69-1.12,0.69c-0.51,0-1.12-0.22-1.12-0.73h0.51V29.56z"/>
		<path class="st2" d="M43.23,9.77h-0.45l0.2,0.47c0,0,0.18,0.45,0.18,1.37v8.41c0,2.63-1.9,4.45-4.16,4.45c-2.24,0-4-1.78-4-4.45
			v-7.98c0-0.73,0-1.35,0.16-1.8l0.16-0.45h-2.75l0.16,0.45c0.16,0.45,0.16,1.08,0.16,1.8v7.88c0,3.69,2.61,6.37,5.8,6.37
			c3.18,0,5.76-2.67,5.76-6.37v-8.29c0-0.94,0.16-1.39,0.16-1.39l0.16-0.47h-0.43H4.01L43.23,9.77z"/>
		<path class="st2" d="M97.42,24.17c-0.71,0.27-1.22,0.39-1.78,0.39h-4.47v-7.24h5.02l0.47-1.31h-5.49v-4.82h3.59
			c0.59,0,1.1,0,1.88,0.31l0.69,0.27l-0.37-1.98h-0.22H88.6l0.18,0.45c0.2,0.51,0.2,1.24,0.2,2.06v11.1c0,1.27,0,1.55-0.2,2.1
			l-0.16,0.45h8.92l0.51-2.02L97.42,24.17z"/>
		<path class="st2" d="M79.77,24.56h-3.53V12.25c0-1.02,0.04-1.55,0.14-1.94c0.04-0.14,0.18-0.53,0.18-0.53h-2.88l0.18,0.45
			c0.18,0.51,0.18,1.24,0.18,2.08v11.08c0,1.29,0,1.57-0.18,2.1l-0.16,0.45h7.98l0.51-2.02l-0.61,0.24
			C80.87,24.44,80.36,24.56,79.77,24.56"/>
		<path class="st2" d="M52.05,24.56h-3.02V11.15h2.24c3.43,0,5.92,3.08,5.92,7.35C57.21,21.5,55.6,24.56,52.05,24.56 M52.23,9.77
			h-5.18H46.6l0.18,0.47c0.18,0.41,0.16,0.98,0.16,1.65v0.41v11.08c0,1.29,0,1.57-0.18,2.1l-0.16,0.45h5.53
			c4.59,0,7.31-4.24,7.31-8.31C59.44,13.3,56.21,9.77,52.23,9.77"/>
		<path class="st2" d="M23.19,18.74c0.98-2.53,1.88-4.84,2.06-5.27c0.18,0.45,1.06,2.76,2.02,5.27H23.19z M31.28,23.3L25.89,9.5
			h-0.47l-5.55,13.76c-0.49,1.18-0.71,1.47-1.12,2l-0.51,0.69h2.12c0,0,1.14-2.94,2.31-5.98h5.04c1.16,3.04,2.27,5.98,2.27,5.98
			h3.02l-0.67-0.8C32.01,24.74,31.75,24.42,31.28,23.3"/>
		<path class="st2" d="M63.26,18.74c0.98-2.53,1.88-4.84,2.06-5.27c0.18,0.45,1.06,2.76,2.02,5.27H63.26z M71.36,23.3L65.97,9.5
			H65.5l-5.57,13.76c-0.49,1.18-0.71,1.47-1.12,2l-0.51,0.69h2.14c0,0,1.14-2.94,2.31-5.98h5.06c1.16,3.04,2.27,5.98,2.27,5.98h3.04
			l-0.69-0.8C72.09,24.74,71.83,24.42,71.36,23.3"/>
		<path class="st2" d="M85.89,10.25l0.16-0.45H85.6h-2.45l0.2,0.47c0.2,0.47,0.18,1.1,0.18,1.82v11.57c0,0.75,0,1.35-0.18,1.84
			l-0.2,0.47h2.9l-0.16-0.45c-0.2-0.55-0.2-1.27-0.2-2.1V12.34C85.7,11.48,85.7,10.75,85.89,10.25"/>
		<path class="st2" d="M13.25,24.77c-2.47,0-5.61-2.49-5.61-7.69c0-2.86,1.57-6.22,5.61-6.22c1.55,0,3.41,1.14,4.49,2.98l0.37,0.69
			l-0.22-3.59l-0.14-0.1c-1.29-0.88-2.88-1.37-4.51-1.37c-4.43,0-8.1,4-8.1,8.69c0,4.57,3.61,8.02,8.1,8.02
			c1.61,0,3.2-0.57,4.53-1.63l0.49-2.76C17.32,22.7,16.6,24.77,13.25,24.77"/>
		<path class="st2" d="M85.66,7.42c-0.88,0.53-1.86,0.51-2.18-0.02c-0.31-0.53,0.16-1.39,1.04-1.92c0.9-0.53,1.86-0.51,2.2,0.02
			C87.01,6.03,86.54,6.89,85.66,7.42"/>
	</g>
</g>
<g>
	<path class="st5" d="M42.51,32.27h-0.84v2.61h0.46v-0.95h0.29c0.59,0,0.96-0.3,0.96-0.82C43.38,32.6,43.05,32.27,42.51,32.27z
		 M42.45,33.48h-0.32v-0.76h0.36c0.26,0,0.41,0.13,0.41,0.37C42.9,33.33,42.74,33.48,42.45,33.48z"/>
	<path class="st5" d="M47.21,32.24l-1.19,2.64h0.52l0.2-0.47h1.06l0.21,0.47h0.52l-1.19-2.64H47.21z M46.92,33.99l0.35-0.85
		l0.36,0.85H46.92z"/>
	<path class="st5" d="M53.41,34.22L53.27,34c-0.1-0.16-0.19-0.26-0.32-0.34c0.28-0.1,0.44-0.3,0.44-0.61c0-0.52-0.34-0.78-0.92-0.78
		H51.7v2.61h0.46v-1.03h0.18c0.22,0,0.33,0.04,0.46,0.26l0.26,0.42c0.08,0.12,0.18,0.26,0.24,0.34l0.02,0.02h0.6l-0.08-0.1
		C53.69,34.62,53.56,34.44,53.41,34.22z M52.46,33.41h-0.3v-0.7h0.3c0.37,0,0.46,0.16,0.46,0.34
		C52.92,33.26,52.82,33.41,52.46,33.41z"/>
	<rect x="56.92" y="32.27" class="st5" width="0.46" height="2.61"/>
	<path class="st5" d="M61.54,33.31l-0.15-0.05c-0.23-0.08-0.28-0.18-0.28-0.3c0-0.16,0.13-0.26,0.34-0.26
		c0.17,0,0.31,0.02,0.58,0.16l0.08,0.04v-0.51l-0.04-0.01c-0.2-0.08-0.4-0.12-0.63-0.12c-0.46,0-0.8,0.31-0.8,0.71
		c0,0.35,0.19,0.58,0.59,0.73l0.17,0.06c0.31,0.11,0.37,0.23,0.37,0.39c0,0.2-0.14,0.32-0.39,0.32c-0.23,0-0.43-0.06-0.66-0.2
		l-0.09-0.05v0.53l0.03,0.02c0.19,0.1,0.45,0.16,0.71,0.16c0.51,0,0.86-0.31,0.86-0.77C62.25,33.74,62.03,33.49,61.54,33.31z"/>
	<path class="st5" d="M85.88,11.29l0.16-0.45h-0.45h-2.42l0.19,0.46c0.19,0.46,0.18,1.09,0.18,1.81v11.46c0,0.73,0,1.35-0.18,1.83
		l-0.18,0.46h2.86l-0.16-0.45c-0.19-0.54-0.19-1.25-0.19-2.09V13.34C85.7,12.51,85.7,11.81,85.88,11.29z"/>
	<path class="st5" d="M97.3,25.09c-0.69,0.26-1.4,0.38-2.11,0.38H91.1V18.3h4.98l0.46-1.31H91.1v-4.79h3.55
		c0.58,0,1.22,0.03,1.87,0.32l0.68,0.28l-0.38-1.96h-8.27l0.18,0.45c0.19,0.51,0.19,1.22,0.19,2.05v10.99c0,1.27,0,1.54-0.19,2.08
		l-0.16,0.45h8.83l0.51-2.01L97.3,25.09z"/>
	<path class="st5" d="M47.28,12.94l-0.01,0.4v10.98c0,1.27,0,1.55-0.17,2.09l-0.15,0.45h5.32c4.74,0,7.4-4.19,7.4-8.24
		c0-4.29-3.01-7.78-7.79-7.78h-4.94l0.18,0.47C47.3,11.72,47.29,12.29,47.28,12.94z M49.36,12.19h2.19c3.4,0,5.9,3.06,5.9,7.28
		c0,2.99-1.52,6.01-5.25,6.01h-2.84V12.19z"/>
	<path class="st5" d="M43.62,10.84h-0.45l0.19,0.47c0,0,0.17,0.45,0.17,1.37v8.33c0,2.61-1.88,4.41-4.13,4.41
		c-2.21,0-3.96-1.76-3.96-4.41v-7.93c0-0.71,0-1.33,0.16-1.79l0.15-0.45h-2.72l0.15,0.45c0.16,0.45,0.15,1.07,0.15,1.79v8
		c0,3.66,2.57,6.13,5.75,6.13c3.15,0,5.71-2.5,5.71-6.16v-8.37c0-0.93,0.15-1.38,0.15-1.38l0.16-0.46h-0.42H43.62z"/>
	<path class="st5" d="M26.45,10.55h-0.46c0,0-4.21,10.2-5.51,13.64c-0.38,1.01-1.03,1.97-1.62,2.66h2.12c0,0,1.13-2.91,2.3-5.93h5
		c1.14,3.02,2.25,5.93,2.25,5.93h2.99c-0.86-0.92-1.33-1.63-1.73-2.63L26.45,10.55z M23.75,19.7c0.97-2.5,1.86-4.79,2.05-5.23
		c0.18,0.45,1.05,2.73,2,5.23H23.75z"/>
	<path class="st5" d="M79.48,25.47h-3.14V13.28c0-1.02,0.04-1.53,0.14-1.92c0.04-0.14,0.17-0.53,0.17-0.53h-2.86l0.17,0.45
		c0.18,0.51,0.18,1.22,0.18,2.05v10.98c0,1.28,0,1.55-0.18,2.09l-0.16,0.45h7.9l0.51-2l-0.6,0.23
		C80.92,25.36,80.23,25.47,79.48,25.47z"/>
	<path class="st5" d="M13.92,25.69c-2.81,0-5.55-2.89-5.55-7.61c0-3.53,2.12-6.16,5.55-6.16c2.06,0,3.69,1.41,4.81,3.63l-0.21-3.62
		c-1.27-0.84-2.75-1.4-4.61-1.4c-4.39,0-8.02,3.96-8.02,8.61c0,4.53,3.58,7.94,8.02,7.94c1.68,0,3.3-0.62,4.54-1.63l0.43-2.73
		C17.45,24.66,16.38,25.69,13.92,25.69z"/>
	<path class="st5" d="M71.49,24.23l-5.34-13.67h-0.47L60.18,24.2c-0.48,1.17-0.7,1.45-1.11,1.99l-0.51,0.68h2.12
		c0,0,1.13-2.91,2.29-5.93h4.99c1.15,3.02,2.25,5.93,2.25,5.93h3.01l-0.68-0.8C72.21,25.65,71.95,25.35,71.49,24.23z M63.47,19.7
		c0.97-2.5,1.87-4.79,2.04-5.23c0.18,0.45,1.05,2.73,2,5.23H63.47z"/>
	<path class="st5" d="M83.39,8.87c2.06,0.19,3.57-1.32,3.38-3.38C84.7,5.29,83.19,6.81,83.39,8.87z"/>
</g>
</svg>
