<svg xmlns="http://www.w3.org/2000/svg" width="180" height="38" viewBox="0 0 180 38"><path d="M30.32,35.4h1.23v.83A1.56,1.56,0,0,1,31,37.47a2.31,2.31,0,0,1-1.63.52,2.34,2.34,0,0,1-1.64-.52,1.59,1.59,0,0,1-.5-1.24v-3a1.6,1.6,0,0,1,.5-1.24,2.39,2.39,0,0,1,1.64-.51A2.36,2.36,0,0,1,31,32a1.58,1.58,0,0,1,.51,1.24v.83H30.32v-.83a1,1,0,0,0-.28-.79,1,1,0,0,0-.63-.18,1,1,0,0,0-.64.18,1,1,0,0,0-.27.79v3a1,1,0,0,0,.27.79,1,1,0,0,0,.64.18A1,1,0,0,0,30,37a1,1,0,0,0,.28-.79Z"/><path d="M35.22,32.44a1,1,0,0,0-.28.79v3a1,1,0,0,0,.28.79.93.93,0,0,0,.63.18,1,1,0,0,0,.64-.18,1,1,0,0,0,.27-.79v-3a1,1,0,0,0-.27-.79,1,1,0,0,0-.64-.18.93.93,0,0,0-.63.18m.63-1a2.39,2.39,0,0,1,1.64.51,1.6,1.6,0,0,1,.5,1.24v3a1.59,1.59,0,0,1-.5,1.24,2.34,2.34,0,0,1-1.64.52,2.31,2.31,0,0,1-1.63-.52,1.56,1.56,0,0,1-.51-1.24v-3A1.58,1.58,0,0,1,34.22,32a2.36,2.36,0,0,1,1.63-.51"/><path d="M41.39,37.84H40.16V31.6h1.06l.17.34a1.7,1.7,0,0,1,.89-.46,1.89,1.89,0,0,1,1,.06,1.6,1.6,0,0,1,1.15,1.68v4.62H43.2V33.22a1,1,0,0,0-.27-.79,1,1,0,0,0-.63-.18,1,1,0,0,0-.64.18,1,1,0,0,0-.27.78Z"/><path d="M46.48,35.85h1.17v.37a1.6,1.6,0,0,0,.09.68c.13.2.43.3.91.3s.77-.1.9-.3a1.6,1.6,0,0,0,.09-.68.93.93,0,0,0-.49-.84,6.91,6.91,0,0,0-1.09-.4A3,3,0,0,1,47,34.44a1.5,1.5,0,0,1-.49-1.21c0-1.18.72-1.78,2.17-1.78s2.16.6,2.16,1.78v.36H49.64v-.37a1.2,1.2,0,0,0-.15-.68,1.34,1.34,0,0,0-1.69,0,1.2,1.2,0,0,0-.15.68,1,1,0,0,0,.5.86,6.18,6.18,0,0,0,1.09.37,3,3,0,0,1,1.08.51,1.56,1.56,0,0,1,.49,1.24,1.73,1.73,0,0,1-.42,1.28,3.3,3.3,0,0,1-3.49,0,1.73,1.73,0,0,1-.42-1.28Z"/><path d="M55.9,35.4h1.23v.83a1.59,1.59,0,0,1-.5,1.24,2.83,2.83,0,0,1-3.27,0,1.56,1.56,0,0,1-.5-1.24v-3a1.57,1.57,0,0,1,.5-1.24,2.88,2.88,0,0,1,3.27,0,1.6,1.6,0,0,1,.5,1.24v.83H55.9v-.83a1,1,0,0,0-.27-.79,1,1,0,0,0-.64-.18,1,1,0,0,0-.63.18,1,1,0,0,0-.27.79v3a1,1,0,0,0,.27.79,1,1,0,0,0,.63.18,1,1,0,0,0,.64-.18,1,1,0,0,0,.27-.79Z"/><path d="M60.53,37.84H59.3V31.6h1.23Zm0-7.42H59.3V29.5h1.23Z"/><path d="M64.2,32.44a1,1,0,0,0-.27.79v3a1,1,0,0,0,.27.79,1,1,0,0,0,.64.18,1,1,0,0,0,.63-.18,1,1,0,0,0,.27-.79v-3a1,1,0,0,0-.27-.79,1,1,0,0,0-.63-.18,1,1,0,0,0-.64.18m.64-1a2.36,2.36,0,0,1,1.63.51A1.58,1.58,0,0,1,67,33.23v3a1.56,1.56,0,0,1-.51,1.24,2.31,2.31,0,0,1-1.63.52,2.34,2.34,0,0,1-1.64-.52,1.56,1.56,0,0,1-.5-1.24v-3A1.57,1.57,0,0,1,63.2,32a2.39,2.39,0,0,1,1.64-.51"/><path d="M72.19,31.6h1.23v6.24H72.35l-.16-.34a1.7,1.7,0,0,1-.89.46,1.88,1.88,0,0,1-1-.06,1.61,1.61,0,0,1-1.16-1.69V31.6h1.23v4.61a1,1,0,0,0,.28.8.91.91,0,0,0,.63.18,1,1,0,0,0,.64-.18,1,1,0,0,0,.27-.78Z"/><path d="M75.46,35.85h1.18v.37a1.6,1.6,0,0,0,.09.68q.18.3.9.3t.9-.3a1.6,1.6,0,0,0,.09-.68.91.91,0,0,0-.49-.84A6.52,6.52,0,0,0,77,35,3,3,0,0,1,76,34.44a1.51,1.51,0,0,1-.5-1.21c0-1.18.73-1.78,2.17-1.78s2.17.6,2.17,1.78v.36H78.62v-.37a1.21,1.21,0,0,0-.14-.68,1,1,0,0,0-.85-.3,1,1,0,0,0-.85.3,1.21,1.21,0,0,0-.14.68.94.94,0,0,0,.49.86,6.52,6.52,0,0,0,1.09.37A3,3,0,0,1,79.3,35a1.56,1.56,0,0,1,.5,1.24,1.73,1.73,0,0,1-.42,1.28,3.31,3.31,0,0,1-3.5,0,1.73,1.73,0,0,1-.42-1.28Z"/><path d="M86.12,35.85h1.17v.37a1.6,1.6,0,0,0,.09.68c.13.2.43.3.91.3s.78-.1.9-.3a1.6,1.6,0,0,0,.09-.68.91.91,0,0,0-.49-.84A6.52,6.52,0,0,0,87.7,35a3,3,0,0,1-1.08-.53,1.51,1.51,0,0,1-.5-1.21c0-1.18.72-1.78,2.17-1.78s2.17.6,2.17,1.78v.36H89.28v-.37a1.3,1.3,0,0,0-.14-.68,1.35,1.35,0,0,0-1.7,0,1.2,1.2,0,0,0-.15.68,1,1,0,0,0,.5.86,6.52,6.52,0,0,0,1.09.37A3,3,0,0,1,90,35a1.56,1.56,0,0,1,.5,1.24A1.73,1.73,0,0,1,90,37.49a3.31,3.31,0,0,1-3.5,0,1.73,1.73,0,0,1-.42-1.28Z"/><path d="M95.64,31.6H97l-2,2.26a2.14,2.14,0,0,1,1.26.48,1.59,1.59,0,0,1,.51,1.24v2.26H95.55V35.58a1,1,0,0,0-.28-.78.93.93,0,0,0-.63-.18h-.91v3.22H92.5v-9h1.23v4.95Z"/><path d="M100,37.84H98.78V31.6H100Zm0-7.42H98.78V29.5H100Z"/><path d="M103.41,37.84h-1.23V31.6h1.06l.17.34a1.7,1.7,0,0,1,.89-.46,1.89,1.89,0,0,1,1,.06,1.6,1.6,0,0,1,1.15,1.68v4.62h-1.23V33.22a1,1,0,0,0-.27-.79,1,1,0,0,0-.63-.18,1,1,0,0,0-.64.18,1,1,0,0,0-.27.78Z"/><path d="M112.9,35.85h1.17v.37a1.6,1.6,0,0,0,.09.68c.13.2.43.3.91.3s.78-.1.9-.3a1.6,1.6,0,0,0,.09-.68.91.91,0,0,0-.49-.84,6.52,6.52,0,0,0-1.09-.4,3,3,0,0,1-1.08-.53,1.51,1.51,0,0,1-.5-1.21c0-1.18.72-1.78,2.17-1.78s2.17.6,2.17,1.78v.36h-1.18v-.37a1.2,1.2,0,0,0-.15-.68,1,1,0,0,0-.84-.3,1,1,0,0,0-.85.3,1.2,1.2,0,0,0-.15.68,1,1,0,0,0,.5.86,6.52,6.52,0,0,0,1.09.37,3,3,0,0,1,1.08.51,1.56,1.56,0,0,1,.5,1.24,1.69,1.69,0,0,1-.43,1.28,2.46,2.46,0,0,1-1.74.5,2.49,2.49,0,0,1-1.75-.5,1.73,1.73,0,0,1-.42-1.28Z"/><path d="M122.33,35.4h1.23v.83a1.56,1.56,0,0,1-.51,1.24,2.31,2.31,0,0,1-1.63.52,2.34,2.34,0,0,1-1.64-.52,1.59,1.59,0,0,1-.5-1.24v-3a1.6,1.6,0,0,1,.5-1.24,2.39,2.39,0,0,1,1.64-.51,2.36,2.36,0,0,1,1.63.51,1.58,1.58,0,0,1,.51,1.24v.83h-1.23v-.83a1,1,0,0,0-.28-.79.93.93,0,0,0-.63-.18,1,1,0,0,0-.64.18,1,1,0,0,0-.27.79v3a1,1,0,0,0,.27.79,1,1,0,0,0,.64.18.93.93,0,0,0,.63-.18,1,1,0,0,0,.28-.79Z"/><path d="M127,37.84h-1.23V31.6H127Zm0-7.42h-1.23V29.5H127Z"/><path d="M130.35,34.35h1.82V33.24a1,1,0,0,0-.27-.79,1.23,1.23,0,0,0-1.28,0,1,1,0,0,0-.27.79Zm-1.23-1.11a1.59,1.59,0,0,1,.5-1.24,2.39,2.39,0,0,1,1.64-.52,2.34,2.34,0,0,1,1.63.52,1.56,1.56,0,0,1,.51,1.24v1.89h-3.05v1.1a1,1,0,0,0,.27.8,1.23,1.23,0,0,0,1.28,0,1,1,0,0,0,.27-.8v-.51h1.23v.51a1.58,1.58,0,0,1-.51,1.25,2.34,2.34,0,0,1-1.63.51,2.39,2.39,0,0,1-1.64-.51,1.61,1.61,0,0,1-.5-1.25Z"/><path d="M136.8,37.84h-1.24V31.6h1.07l.17.34a1.66,1.66,0,0,1,.89-.46,1.89,1.89,0,0,1,1,.06,1.6,1.6,0,0,1,1.15,1.68v4.62h-1.23V33.22a1,1,0,0,0-.27-.79,1,1,0,0,0-.64-.18,1,1,0,0,0-.63.18,1,1,0,0,0-.27.78Z"/><path d="M145.06,35.4h1.23v.83a1.56,1.56,0,0,1-.51,1.24,2.31,2.31,0,0,1-1.63.52,2.34,2.34,0,0,1-1.64-.52,1.59,1.59,0,0,1-.5-1.24v-3a1.6,1.6,0,0,1,.5-1.24,2.39,2.39,0,0,1,1.64-.51,2.36,2.36,0,0,1,1.63.51,1.58,1.58,0,0,1,.51,1.24v.83h-1.23v-.83a1,1,0,0,0-.28-.79.93.93,0,0,0-.63-.18,1,1,0,0,0-.64.18,1,1,0,0,0-.27.79v3a1,1,0,0,0,.27.79,1,1,0,0,0,.64.18.93.93,0,0,0,.63-.18,1,1,0,0,0,.28-.79Z"/><path d="M149.68,34.35h1.82V33.24a1,1,0,0,0-.27-.79,1,1,0,0,0-.64-.18.93.93,0,0,0-.63.18,1,1,0,0,0-.28.79Zm-1.23-1.11A1.56,1.56,0,0,1,149,32a2.36,2.36,0,0,1,1.63-.52,2.39,2.39,0,0,1,1.64.52,1.59,1.59,0,0,1,.5,1.24v1.89h-3v1.1a1,1,0,0,0,.28.8.93.93,0,0,0,.63.18,1,1,0,0,0,.64-.18,1,1,0,0,0,.27-.8v-.51h1.23v.51a1.61,1.61,0,0,1-.5,1.25,2.39,2.39,0,0,1-1.64.51,2.36,2.36,0,0,1-1.63-.51,1.58,1.58,0,0,1-.51-1.25Z"/><path d="M7.38,20.55H4.87c-1,0-1.23-.18-1.23-1.15V5.9c0-1,.2-1.15,1.23-1.15H7.38V2.22H3.63C1,2.22,0,3.17,0,5.63v14c0,2.46,1,3.41,3.63,3.41H7.38V20.55"/><path d="M77.28,15.59a2.58,2.58,0,0,1-.5,1.78,1.49,1.49,0,0,1-1.1.34,1.54,1.54,0,0,1-1.1-.33,2.62,2.62,0,0,1-.5-1.79V10.46a2.55,2.55,0,0,1,.5-1.77,2,2,0,0,1,2.19,0,2.54,2.54,0,0,1,.51,1.78Zm-1.6-9.9A5.17,5.17,0,0,0,71.8,7.11a4.65,4.65,0,0,0-1.19,3.35v5.13A4.66,4.66,0,0,0,71.8,19a6,6,0,0,0,7.75,0,4.62,4.62,0,0,0,1.2-3.36V10.46a4.65,4.65,0,0,0-1.19-3.35,5.17,5.17,0,0,0-3.88-1.42"/><path d="M62.87.85a4.12,4.12,0,0,0-2.09,3.88v1h-1.7V8.35h1.7v12h3.45v-12H67.9V5.69H64.23v-1a1.79,1.79,0,0,1,.61-1.52,3.59,3.59,0,0,1,2.5-.41l.84.12L68.66.19,67.79.11a8.46,8.46,0,0,0-4.92.74"/><path d="M53.63,5.7a3.51,3.51,0,0,0-2.49.16A3.65,3.65,0,0,0,49.6,7.13a3.5,3.5,0,0,0-2.53-1.54,3.41,3.41,0,0,0-2.83.83L44,5.69h-3V20.36h3.46v-10a3.06,3.06,0,0,1,.37-1.77c0-.07.21-.3.91-.3s.85.23.9.31a3.07,3.07,0,0,1,.36,1.79v9.94h3.47V10.42a3.14,3.14,0,0,1,.36-1.8c0-.07.21-.3.92-.3s.86.23.91.3a3.27,3.27,0,0,1,.34,1.8v9.94h3.47V10.42a5.71,5.71,0,0,0-.83-3.15A3.72,3.72,0,0,0,53.63,5.7"/><path d="M30.75,10.46a2.5,2.5,0,0,1,.51-1.77,1.46,1.46,0,0,1,1.1-.34,1.5,1.5,0,0,1,1.09.33A2.54,2.54,0,0,1,34,10.46v5.13a2.52,2.52,0,0,1-.51,1.78,1.45,1.45,0,0,1-1.09.34,1.51,1.51,0,0,1-1.1-.33,2.57,2.57,0,0,1-.51-1.79Zm1.61-4.77a5.15,5.15,0,0,0-3.88,1.42,4.65,4.65,0,0,0-1.19,3.35v5.13A4.66,4.66,0,0,0,28.48,19a5.15,5.15,0,0,0,3.88,1.41A5.14,5.14,0,0,0,36.23,19a4.66,4.66,0,0,0,1.19-3.36V10.46a4.65,4.65,0,0,0-1.19-3.35,5.14,5.14,0,0,0-3.87-1.42"/><path d="M18.58,5.69a5.14,5.14,0,0,0-3.87,1.42,4.65,4.65,0,0,0-1.19,3.35v5.13A4.66,4.66,0,0,0,14.71,19a5.14,5.14,0,0,0,3.87,1.41A5.15,5.15,0,0,0,22.46,19a4.66,4.66,0,0,0,1.19-3.36v-.36H20.19v.36a2.52,2.52,0,0,1-.51,1.78,1.46,1.46,0,0,1-1.1.34,1.5,1.5,0,0,1-1.09-.33A2.57,2.57,0,0,1,17,15.59V10.46a2.55,2.55,0,0,1,.5-1.77,1.49,1.49,0,0,1,1.1-.34,1.51,1.51,0,0,1,1.1.33,2.54,2.54,0,0,1,.51,1.78v1.33h3.46V10.46a4.65,4.65,0,0,0-1.19-3.35,5.15,5.15,0,0,0-3.88-1.42"/><path d="M150,5.88a4.23,4.23,0,0,0-2.44-.18,4.15,4.15,0,0,0-1.72.85l-.23-.86h-3V20.36H146v-10a2.45,2.45,0,0,1,.5-1.73,2,2,0,0,1,2.2,0,2.51,2.51,0,0,1,.51,1.77v9.94h3.46V10.42c0-2.3-.92-3.83-2.76-4.54"/><path d="M159.81,10.47a2.51,2.51,0,0,1,.51-1.77,1.93,1.93,0,0,1,2.19,0,2.51,2.51,0,0,1,.51,1.77v.8h-3.21Zm6.68,3.46V10.47a4.63,4.63,0,0,0-1.2-3.34,6,6,0,0,0-7.75,0,4.63,4.63,0,0,0-1.19,3.34V15.6A4.66,4.66,0,0,0,157.54,19a6,6,0,0,0,7.75,0,3.53,3.53,0,0,0,1.2-2.88v-.82H163v.82a1.47,1.47,0,0,1-1.6,1.64c-1.33,0-1.61-1.28-1.61-2.12V13.93Z"/><path d="M135.48,15.59a2.57,2.57,0,0,1-.51,1.78,1.46,1.46,0,0,1-1.1.34,1.5,1.5,0,0,1-1.09-.33,2.57,2.57,0,0,1-.51-1.79V10.46a2.55,2.55,0,0,1,.5-1.77,2,2,0,0,1,2.2,0,2.59,2.59,0,0,1,.51,1.78Zm-1.61-9.9A5.14,5.14,0,0,0,130,7.11a4.61,4.61,0,0,0-1.2,3.35v5.13A4.66,4.66,0,0,0,130,19a6,6,0,0,0,7.76,0,4.66,4.66,0,0,0,1.19-3.36V10.46a4.65,4.65,0,0,0-1.19-3.35,5.17,5.17,0,0,0-3.88-1.42"/><path d="M91.76,5.88a4.26,4.26,0,0,0-2.45-.18,4.11,4.11,0,0,0-1.71.85l-.23-.86h-3V20.36h3.47v-10a2.49,2.49,0,0,1,.5-1.74,1.54,1.54,0,0,1,1.1-.33,1.5,1.5,0,0,1,1.09.33,2.51,2.51,0,0,1,.51,1.77v1.37h3.47V10.42c0-2.3-.93-3.83-2.76-4.54"/><polygon points="103.03 0 99.75 0 99.75 5.69 96.77 5.69 96.77 8.35 99.57 8.35 99.57 20.36 103.03 20.36 103.03 8.35 105.84 8.35 105.84 5.69 103.03 5.69 103.03 0"/><polygon points="125.89 5.69 115.77 5.69 115.77 8.35 121.69 8.35 115.73 18.83 115.7 20.36 125.89 20.36 125.89 17.71 119.99 17.71 125.86 7.42 125.89 5.69"/><path d="M172.62,20.55h2.51c1,0,1.23-.18,1.23-1.15V5.9c0-1-.2-1.15-1.23-1.15h-2.51V2.22h3.75c2.61,0,3.63.95,3.63,3.41v14c0,2.46-1,3.41-3.63,3.41h-3.75V20.55"/><path d="M172.62,20.55h2.51c1,0,1.23-.18,1.23-1.15V5.9c0-1-.2-1.15-1.23-1.15h-2.51V2.22h3.75c2.61,0,3.63.95,3.63,3.41v14c0,2.46-1,3.41-3.63,3.41h-3.75V20.55"/></svg>