<?xml version="1.0" encoding="utf-8"?>
<!-- Generator: Adobe Illustrator 22.1.0, SVG Export Plug-In . SVG Version: 6.00 Build 0)  -->
<svg version="1.1" id="Ebene_1" xmlns="http://www.w3.org/2000/svg" xmlns:xlink="http://www.w3.org/1999/xlink" x="0px" y="0px"
	 viewBox="0 0 114 59.114" style="enable-background:new 0 0 114 59.114;" xml:space="preserve">
<style type="text/css">
	.st0{fill:#927F6E;}
</style>
<title>Element 1</title>
<g id="Ebene_2_1_">
	<g id="DRH">
		<g id="DRH_M">
			<path class="st0" d="M0.305,0.978h3.75c5,0,8,1.58,8,7.32s-3,8-8.17,8h-3.58V0.978z M2.755,1.758v13.73h1.19
				c3.55,0,5.52-1.92,5.52-7.19c0-5.1-2-6.55-5.52-6.55L2.755,1.758z"/>
			<path class="st0" d="M14.405,5.288h2.38v11h-2.38V5.288z M17.155,7.618c0.25-1.42,1-2.52,2.33-2.52
				c0.271-0.006,0.539,0.056,0.78,0.18v1.43c-0.228-0.04-0.459-0.063-0.69-0.07c-0.874-0.031-1.7,0.403-2.17,1.14L17.155,7.618z"/>
			<path class="st0" d="M21.475,13.408c0.839-0.017,1.533,0.65,1.55,1.49c0.017,0.839-0.65,1.533-1.49,1.55
				c-0.839,0.017-1.533-0.65-1.55-1.49c0-0.007,0-0.013,0-0.02c-0.033-0.811,0.597-1.496,1.409-1.529
				C21.421,13.408,21.448,13.408,21.475,13.408z"/>
			<path class="st0" d="M28.425,0.978h2.45v6.82h7v-6.82h2.43v15.29h-2.47v-7.64h-7v7.64h-2.41V0.978z"/>
			<path class="st0" d="M46.945,10.638h1.36v-1.19c0-1.92-0.73-2.72-2.27-2.72c-1.037-0.006-2.028,0.426-2.73,1.19l-0.3-0.21
				c0.598-1.665,2.236-2.726,4-2.59c2.54,0,3.71,1.35,3.71,4v7.19h-2.41v-4.98h-1c-1.81,0-2.38,0.64-2.38,2s0.57,1.88,1.44,1.88
				c0.431,0.014,0.851-0.14,1.17-0.43l0.18,0.21c-0.4,0.891-1.293,1.458-2.27,1.44c-1.39,0.144-2.633-0.866-2.777-2.256
				c-0.02-0.194-0.018-0.39,0.007-0.584C42.715,11.828,44.015,10.638,46.945,10.638z"/>
			<path class="st0" d="M53.465,5.288h2.38v7.37c0,1.65,0.55,2.2,1.72,2.2c0.647-0.006,1.269-0.256,1.74-0.7l0.16,0.25
				c-0.511,1.206-1.69,1.992-3,2c-2.11,0-3-1.1-3-3.62V5.288z M59.965,5.288h2.34v11h-2.34V5.288z"/>
			<path class="st0" d="M64.885,13.978c0.562,0.944,1.582,1.519,2.68,1.51c1.14,0,2.1-0.53,2.1-1.79c0-0.69-0.25-1.3-1.37-1.85
				l-1.3-0.64c-1.69-0.82-2.33-1.71-2.33-3.15s1.42-3,3.57-3c1.45-0.074,2.791,0.765,3.36,2.1l-0.46,0.27
				c-0.486-0.855-1.378-1.399-2.36-1.44c-0.896-0.089-1.694,0.565-1.783,1.461c-0.003,0.033-0.006,0.066-0.007,0.099
				c-0.019,0.791,0.486,1.5,1.24,1.74l1.28,0.64c1.85,0.92,2.47,1.92,2.47,3.27c0,1.9-1.62,3.23-3.84,3.23s-3.34-1-3.75-2.13
				L64.885,13.978z"/>
			<path class="st0" d="M73.615,10.548c0-3.82,2.13-5.45,4.83-5.45c1.391-0.087,2.659,0.795,3.06,2.13l-0.37,0.21
				c-0.488-0.792-1.35-1.276-2.28-1.28c-1.62,0-2.77,1.12-2.77,4.26c0,3.36,1.24,4.62,2.84,4.62c0.971-0.017,1.867-0.525,2.38-1.35
				l0.34,0.21c-0.424,1.567-1.878,2.63-3.5,2.56C75.555,16.458,73.615,14.848,73.615,10.548z"/>
			<path class="st0" d="M83.595,0.158h2.38v16.11h-2.38V0.158z M90.235,8.718c0-1.4-0.6-2.08-1.67-2.08
				c-0.708-0.006-1.395,0.238-1.94,0.69l-0.15-0.17c0.528-1.265,1.791-2.064,3.16-2c1.88,0,3,1.1,3,3.52v7.64h-2.41L90.235,8.718z"
				/>
			<path class="st0" d="M95.585,0.158h2.38v16.11h-2.38V0.158z M98.515,10.548l4.72-5.26h1.07l-3.87,4.26l4.17,6.73h-2.5l-3.59-5.63
				L98.515,10.548z"/>
			<path class="st0" d="M109.955,10.638h1.35v-1.19c0-1.92-0.73-2.72-2.27-2.72c-1.037-0.006-2.028,0.426-2.73,1.19l-0.3-0.21
				c0.598-1.665,2.236-2.726,4-2.59c2.54,0,3.71,1.35,3.71,4v7.19h-2.41v-4.98h-1c-1.81,0-2.38,0.64-2.38,2s0.57,1.88,1.44,1.88
				c0.431,0.014,0.851-0.14,1.17-0.43l0.18,0.21c-0.4,0.891-1.293,1.458-2.27,1.44c-1.39,0.144-2.633-0.866-2.777-2.256
				c-0.02-0.194-0.018-0.39,0.007-0.584C105.725,11.828,107.025,10.638,109.955,10.638z"/>
			<path class="st0" d="M66.785,30.448c-0.212,0.864-0.326,1.75-0.34,2.64c0.096,1.822,0.534,3.61,1.29,5.27
				c0.899,2.012,1.402,4.178,1.48,6.38c-0.013,3.207-1.31,6.275-3.6,8.52c-4.752,4.761-12.464,4.767-17.225,0.015
				c-0.005-0.005-0.01-0.01-0.015-0.015c-2.296-2.241-3.593-5.312-3.6-8.52c0.094-2.205,0.613-4.372,1.53-6.38
				c0.756-1.66,1.194-3.448,1.29-5.27c-0.014-0.89-0.128-1.775-0.34-2.64h-1.65c0.335,1.663,0.243,3.383-0.27,5
				c-0.81,2.95-2.51,5.3-2.51,9.31c0,7.829,6.346,14.175,14.175,14.175s14.175-6.346,14.175-14.175c0-4-1.7-6.36-2.51-9.31
				c-0.513-1.617-0.605-3.337-0.27-5H66.785z"/>
			<path class="st0" d="M63.425,32.548c-0.107,1.069-0.077,2.148,0.09,3.21c0.238,1.171,0.607,2.312,1.1,3.4
				c0.855,1.755,1.332,3.669,1.4,5.62c-0.03,2.319-0.955,4.536-2.58,6.19c-3.396,3.554-9.029,3.682-12.583,0.287
				c-0.098-0.093-0.193-0.189-0.287-0.287c-1.625-1.654-2.55-3.871-2.58-6.19c0.065-1.95,0.538-3.865,1.39-5.62
				c0.494-1.075,0.866-2.202,1.11-3.36c0.166-1.062,0.196-2.141,0.09-3.21h-1.62c0.149,1.611-0.094,3.234-0.71,4.73
				c-0.89,2.49-2.22,4.71-2.22,7.46c0,6.075,4.925,11,11,11s11-4.925,11-11c0-2.75-1.33-5-2.22-7.46
				c-0.619-1.495-0.866-3.118-0.72-4.73L63.425,32.548z"/>
			<path class="st0" d="M60.475,34.708c-0.063,1.238,0.096,2.478,0.47,3.66c0.197,0.64,0.441,1.265,0.73,1.87
				c0.732,1.393,1.155,2.928,1.24,4.5c-0.027,1.534-0.63,3.001-1.69,4.11c-2.115,2.339-5.726,2.52-8.065,0.405
				c-0.142-0.128-0.277-0.263-0.405-0.405c-1.06-1.109-1.663-2.576-1.69-4.11c0.083-1.575,0.506-3.114,1.24-4.51
				c0.287-0.605,0.531-1.23,0.73-1.87c0.374-1.182,0.533-2.422,0.47-3.66h-1.57c-0.006,1.045-0.182,2.082-0.52,3.07
				c-0.8,2.31-2.17,4.42-2.17,7c-0.154,4.283,3.194,7.88,7.477,8.033s7.88-3.194,8.033-7.477c0.007-0.186,0.007-0.371,0-0.557
				c0-2.54-1.37-4.65-2.17-7c-0.338-0.988-0.514-2.025-0.52-3.07L60.475,34.708z"/>
			<circle class="st0" cx="56.995" cy="44.878" r="4.12"/>
		</g>
	</g>
</g>
</svg>
