<svg xmlns="http://www.w3.org/2000/svg" width="77.998" height="85.405" viewBox="0 0 77.998 85.405">
  <g id="Group_25" data-name="Group 25" transform="translate(2 2.012)">
    <path id="Path_356" data-name="Path 356" d="M2772.65-678.4c.021.366.032.734.032,1.1,0,12.939-12.938,23.428-28.9,23.428s-28.9-10.489-28.9-23.428c0-.37.011-.738.032-1.1Z" transform="translate(-2714.885 702.929)" fill="none" stroke="#111" stroke-linecap="round" stroke-linejoin="round" stroke-width="4"/>
    <path id="Path_357" data-name="Path 357" d="M2764.862-445.546c3.186,0,24.768.157,33.657-.03" transform="translate(-2752.792 526.334)" fill="none" stroke="#111" stroke-linecap="round" stroke-linejoin="round" stroke-width="4"/>
    <line id="Line_13" data-name="Line 13" y2="31.744" transform="translate(28.898 49.061)" fill="none" stroke="#111" stroke-linecap="round" stroke-linejoin="round" stroke-width="4"/>
    <path id="Path_358" data-name="Path 358" d="M2774.441-765.753c3.5-3.495,7.626-5.03,9.229-3.428s.067,5.733-3.428,9.228-7.626,5.03-9.228,3.428-.067-5.733,3.428-9.229Z" transform="translate(-2756.976 772.268)" fill="none" stroke="#ee2d7a" stroke-linecap="round" stroke-linejoin="round" stroke-width="4"/>
    <path id="Path_359" data-name="Path 359" d="M2780.138-777.193c14.266-3.315,50.191-9.363,48.261,21.9-1.286,20.809-21.949,33.8-45.02,35.326-12.182.806-16.292-.76-16.292,4.895,0,5.255,6.616,3.965,15.686,4.288,10.29.367,22.827.716,26.6,11.67" transform="translate(-2754.48 779.969)" fill="none" stroke="#ee2d7a" stroke-linecap="round" stroke-linejoin="round" stroke-width="4"/>
  </g>
</svg>
