<svg xmlns="http://www.w3.org/2000/svg" width="82.706" height="84.382" viewBox="0 0 82.706 84.382">
  <g id="Group_156" data-name="Group 156" transform="translate(-382 -3898.906)">
    <g id="Group_153" data-name="Group 153" transform="translate(-33 16)">
      <path id="Path_697" data-name="Path 697" d="M32.563,0H6A5.974,5.974,0,0,0,0,5.948v64.44a5.974,5.974,0,0,0,6,5.948H47a5.974,5.974,0,0,0,6-5.948V21.776" transform="translate(442 3888.952)" fill="none" stroke="#111" stroke-width="4"/>
      <path id="Path_698" data-name="Path 698" d="M8.169,0,14.62,29.135l.03.109L-2.874,19.127Z" transform="translate(467.665 3892.964) rotate(-30)" fill="none" stroke="#111" stroke-linecap="round" stroke-linejoin="round" stroke-width="4"/>
    </g>
    <g id="Group_155" data-name="Group 155">
      <g id="Path_700" data-name="Path 700" transform="translate(392 3957)" fill="#fff">
        <path d="M 2 17.44619941711426 L 2 2 L 17 2 L 17 17.40342330932617 L 10.6638298034668 13.46802043914795 L 9.620559692382812 12.82005023956299 L 8.57075023651123 13.45734977722168 L 2 17.44619941711426 Z" stroke="none"/>
        <path d="M 4 4 L 4 13.89240074157715 L 9.632530212402344 10.47311019897461 L 15 13.80685615539551 L 15 4 L 4 4 M 0 0 L 19 0 L 19 21 L 9.608599662780762 15.16699028015137 L 0 21 L 0 0 Z" stroke="none" fill="#111"/>
      </g>
      <g id="Group_154" data-name="Group 154" transform="translate(383.8 3983.328)">
        <path id="Path_699" data-name="Path 699" d="M13.808-54.931a4.25,4.25,0,0,1,4.017-2.633,4.25,4.25,0,0,1,4.017,2.633,4.25,4.25,0,0,1,4.8-.272A4.25,4.25,0,0,1,28.8-50.914a4.25,4.25,0,0,1,4.289,2.162,4.25,4.25,0,0,1-.272,4.8,4.25,4.25,0,0,1,2.633,4.017,4.25,4.25,0,0,1-2.633,4.017,4.25,4.25,0,0,1,.272,4.8A4.25,4.25,0,0,1,28.8-28.964a4.25,4.25,0,0,1-2.162,4.289,4.25,4.25,0,0,1-4.8-.272,4.25,4.25,0,0,1-4.017,2.633,4.25,4.25,0,0,1-4.017-2.633,4.25,4.25,0,0,1-4.8.272A4.25,4.25,0,0,1,6.85-28.964a4.25,4.25,0,0,1-4.289-2.162,4.25,4.25,0,0,1,.272-4.8A4.25,4.25,0,0,1,.2-39.939a4.25,4.25,0,0,1,2.633-4.017,4.25,4.25,0,0,1-.272-4.8A4.25,4.25,0,0,1,6.85-50.914,4.25,4.25,0,0,1,9.013-55.2,4.25,4.25,0,0,1,13.808-54.931Z" fill="#fff" stroke="#000" stroke-linecap="round" stroke-linejoin="round" stroke-width="4"/>
      </g>
    </g>
  </g>
</svg>
