<svg xmlns="http://www.w3.org/2000/svg" width="100.47" height="88.683" viewBox="0 0 100.47 88.683">
  <g id="Group_23" data-name="Group 23" transform="translate(2 2)">
    <path id="Path_349" data-name="Path 349" d="M-1659.793-505.63a8.537,8.537,0,0,1,8.537,8.537,8.537,8.537,0,0,1-8.537,8.537,8.537,8.537,0,0,1-8.538-8.537,8.537,8.537,0,0,1,8.538-8.537Z" transform="translate(1701.656 573.238)" fill="none" stroke="#ee2d7a" stroke-linecap="round" stroke-linejoin="round" stroke-width="4"/>
    <path id="Path_350" data-name="Path 350" d="M-1543.529-505.628a8.537,8.537,0,0,1,8.537,8.537,8.537,8.537,0,0,1-8.537,8.537,8.537,8.537,0,0,1-8.537-8.537,8.537,8.537,0,0,1,8.537-8.537Z" transform="translate(1618.239 573.236)" fill="none" stroke="#ee2d7a" stroke-linecap="round" stroke-linejoin="round" stroke-width="4"/>
    <path id="Path_351" data-name="Path 351" d="M-1786.288-744.933h17.35l16.085,52.549h53.83" transform="translate(1786.288 744.933)" fill="none" stroke="#111" stroke-linecap="round" stroke-linejoin="round" stroke-width="4"/>
    <line id="Line_8" data-name="Line 8" x2="62.526" transform="translate(30.39 38.74)" fill="none" stroke="#111" stroke-linecap="round" stroke-linejoin="round" stroke-width="4"/>
    <line id="Line_9" data-name="Line 9" x2="70.223" transform="translate(26.247 24.909)" fill="none" stroke="#111" stroke-linecap="round" stroke-linejoin="round" stroke-width="4"/>
  </g>
</svg>
