<svg xmlns="http://www.w3.org/2000/svg" width="111.875" height="95.468" viewBox="0 0 111.875 95.468">
  <g id="Group_22" data-name="Group 22" transform="translate(2.079 2)">
    <path id="Path_346" data-name="Path 346" d="M-481.009,1193.88c19.283-16.822,31.726-23.617,44.567-31.824,5.658-3.616,11.157-7.367,18.244-7.367a26.273,26.273,0,0,1,26.274,26.273c0,7-2.473,13.645-7.209,18.079" transform="translate(489.823 -1154.69)" fill="none" stroke="#111" stroke-linecap="round" stroke-linejoin="round" stroke-width="4"/>
    <path id="Path_347" data-name="Path 347" d="M-447.046,1299.013l-12.537,11.738c-9.564,8.956-23.068,9.474-34.192,4.067-13.184-6.409-19.394-23.067-13.871-37.2s20.692-20.4,33.877-13.992c9.89,4.807,14.547,17.3,10.4,27.9s-15.518,15.3-25.408,10.493c-6.592-3.2-9.7-11.533-6.936-18.6s10.346-10.2,16.939-7a7.442,7.442,0,0,1,3.468,9.3,6.137,6.137,0,0,1-8.47,3.5" transform="translate(509.663 -1228.375)" fill="none" stroke="#111" stroke-linecap="round" stroke-linejoin="round" stroke-width="4"/>
    <path id="Path_345" data-name="Path 345" d="M-319.746,1316.487c-3.449,3.049-5.59,7.29-4.722,13.617,1.048,7.643,8.554,6.221,12.766,2.871a17.754,17.754,0,0,0,4.576-5.463c1.849,4.262,5.211,7.647,11.417,8.759,7.592,1.364,8.555-6.208,6.672-11.25a17.86,17.86,0,0,0-4.143-6.414c5.033-.147,9.742-2.185,13.058-8.376,3.643-6.8-3.259-10.053-8.638-9.824a18.061,18.061,0,0,0-8.223,2.408c1.551-4.892,1.144-10.1-3.932-15.393-5.335-5.566-10.572-.012-12.016,5.179a18.117,18.117,0,0,0-.227,8.665c-4.06-2.669-8.962-3.627-15.214-.6-6.943,3.356-3.276,10.054,1.21,13.027a17.965,17.965,0,0,0,7.418,2.8Z" transform="translate(386.816 -1244.989)" fill="none" stroke="#ee2d7a" stroke-linecap="round" stroke-linejoin="round" stroke-width="4"/>
    <path id="Path_348" data-name="Path 348" d="M-259.1,1358.363a5.878,5.878,0,0,1,5.876,5.877,5.878,5.878,0,0,1-5.876,5.877,5.878,5.878,0,0,1-5.877-5.877,5.879,5.879,0,0,1,5.877-5.877Z" transform="translate(340.245 -1295.713)" fill="none" stroke="#ee2d7a" stroke-linecap="round" stroke-linejoin="round" stroke-width="4"/>
  </g>
</svg>
