<svg xmlns="http://www.w3.org/2000/svg" width="88.733" height="91.074" viewBox="0 0 88.733 91.074">
  <g id="Group_148" data-name="Group 148" transform="translate(-1321.47 -3081.873)">
    <g id="Path_688" data-name="Path 688" transform="translate(1325.509 3098.843) rotate(-45)" fill="none">
      <path d="M11,0c6.075,0,13,4.925,13,11L16.676,51.07c0,6.075-14.734,6.075-14.734,0L-2,11C-2,4.925,4.925,0,11,0Z" stroke="none"/>
      <path d="M 11 4 C 8.936721801757812 4 6.530055999755859 4.89910888671875 4.719165802001953 6.346443176269531 C 3.049953460693359 7.680561065673828 2.068359375 9.308708190917969 2.003433227539062 10.83867263793945 L 5.938549041748047 50.83842849731445 C 6.311247825622559 51.11779403686523 7.456490516662598 51.6264762878418 9.309188842773438 51.6264762878418 C 11.15614986419678 51.6264762878418 12.30003929138184 51.12093734741211 12.67635536193848 50.84103012084961 L 12.67635536193848 50.70758819580078 L 19.98831176757812 10.70139694213867 C 19.87247276306152 9.211727142333984 18.9002628326416 7.640769958496094 17.28083419799805 6.346443176269531 C 15.46994400024414 4.89910888671875 13.06327819824219 4 11 4 M 11 0 C 17.07513427734375 0 24 4.92486572265625 24 11 L 16.67635536193848 51.07012176513672 C 16.67635536193848 57.145263671875 1.942033767700195 57.145263671875 1.942033767700195 51.07012176513672 L -2 11 C -2 4.92486572265625 4.92486572265625 0 11 0 Z" stroke="none" fill="#111"/>
    </g>
    <path id="Path_689" data-name="Path 689" d="M-839.961,1103.321c18.011,0,21.559-20.08,21.559-20.08s-4.206,4.65-8.455,4.65-5.836-13.716-16.143-13.716c-7.09,0-14.861,4.277-14.861,13.321S-849.687,1103.321-839.961,1103.321Z" transform="translate(2226.402 2055.679)" fill="none" stroke="#111" stroke-linejoin="round" stroke-width="4"/>
    <g id="Group_147" data-name="Group 147" transform="translate(2564.699 -109.788) rotate(45)">
      <g id="Path_686" data-name="Path 686" transform="translate(1431 3086)" fill="#fff">
        <path d="M 11.12380695343018 99.75040435791016 C 10.11691951751709 98.32096862792969 8.756741523742676 96.36162567138672 7.392746925354004 94.30976867675781 C 2.508629322052002 86.96266174316406 2.043561458587646 85.1507568359375 1.999992966651917 84.89627838134766 L 1.999992966651917 5.308741092681885 C 1.999992966651917 3.484294652938843 3.48430061340332 2.000002384185791 5.308746814727783 2.000002384185791 L 16.98797798156738 2.000002384185791 C 18.81242370605469 2.000002384185791 20.29673194885254 3.484294652938843 20.29673194885254 5.308741092681885 L 20.29673194885254 84.89537048339844 C 20.25224494934082 85.15154266357422 19.78117942810059 86.96672058105469 14.87534713745117 94.30826568603516 C 13.50343227386475 96.361328125 12.1358118057251 98.32115936279297 11.12380695343018 99.75040435791016 Z" stroke="none"/>
        <path d="M 5.308746337890625 3.999992370605469 C 4.587095260620117 3.999992370605469 3.999996185302734 4.587089538574219 3.999996185302734 5.308738708496094 L 3.999996185302734 84.61424255371094 C 4.197296142578125 85.16777038574219 5.132343292236328 87.32654571533203 9.302178382873535 93.56848907470703 C 9.927427291870117 94.50445556640625 10.5474910736084 95.41526031494141 11.12809085845947 96.258056640625 C 11.7127742767334 95.41377258300781 12.33737277984619 94.50109100341797 12.96727848052979 93.56304168701172 C 17.15388870239258 87.32843780517578 18.09686851501465 85.16707611083984 18.29672813415527 84.61085510253906 L 18.29672813415527 5.308738708496094 C 18.29672813415527 4.587089538574219 17.70962905883789 3.999992370605469 16.98797988891602 3.999992370605469 L 5.308746337890625 3.999992370605469 M 5.308746337890625 -7.62939453125e-06 L 16.98797988891602 -7.62939453125e-06 C 19.91991233825684 -7.62939453125e-06 22.29672813415527 2.376808166503906 22.29672813415527 5.308738708496094 L 22.29672813415527 84.93989562988281 C 22.29672813415527 87.871826171875 11.11959552764893 103.1906433105469 11.11959552764893 103.1906433105469 C 11.11959552764893 103.1906433105469 -3.814697265625e-06 87.871826171875 -3.814697265625e-06 84.93989562988281 L -3.814697265625e-06 5.308738708496094 C -3.814697265625e-06 2.376808166503906 2.376811981201172 -7.62939453125e-06 5.308746337890625 -7.62939453125e-06 Z" stroke="none" fill="#111"/>
      </g>
      <path id="Path_687" data-name="Path 687" d="M-791.982,1037.587h17.953" transform="translate(2225.125 2062.839)" fill="none" stroke="#111" stroke-width="4"/>
    </g>
  </g>
</svg>
