<svg xmlns="http://www.w3.org/2000/svg" width="76.923" height="76.931" viewBox="0 0 76.923 76.931">
  <g id="Group_145" data-name="Group 145" transform="translate(-617.079 -3087.973)">
    <path id="Path_681" data-name="Path 681" d="M-1703.164,1070.132c0-10.564,6.527-40.159,35.509-40.159s37.412,27.581,37.412,40.159,0,24.307,0,24.307.249,8.454-10.008,8.454H-1671s-4.021-.039-4.021-5.181,4.021-5.81,4.021-5.81h12.863s4.753.307,4.753,5.81-3.28,5.181-3.28,5.181" transform="translate(2322.243 2060)" fill="none" stroke="#000" stroke-linecap="round" stroke-width="4"/>
    <path id="Path_682" data-name="Path 682" d="M-1679.282,1059.987v24.383h-5.284s-9.3.465-9.3-7.662v-8.8c0-6.636,6.13-7.917,9.3-7.917Z" transform="translate(2322.614 2059.206)" fill="none" stroke="#000" stroke-width="4"/>
    <path id="Path_683" data-name="Path 683" d="M-1693.866,1059.987v24.383h5.284s9.3.465,9.3-7.662v-8.8c0-6.636-6.13-7.917-9.3-7.917Z" transform="translate(2361.614 2059.206)" fill="none" stroke="#000" stroke-width="4"/>
  </g>
</svg>
