<svg xmlns="http://www.w3.org/2000/svg" width="100" height="81.326" viewBox="0 0 100 81.326">
  <g id="Group_159" data-name="Group 159" transform="translate(-802 -3923.674)">
    <path id="Path_701" data-name="Path 701" d="M67.4,0H89a7,7,0,0,1,7,7V51a7,7,0,0,1-7,7H7a7,7,0,0,1-7-7V7S.392,0,7.351,0H19.84" transform="translate(804 3945)" fill="#fff" stroke="#111" stroke-width="4"/>
    <g id="Group_157" data-name="Group 157" transform="translate(-2367.531 2769.287) rotate(-45)">
      <g id="Path_686" data-name="Path 686" transform="translate(1431 3086)" fill="#fff">
        <path d="M 11.2003698348999 71.96866607666016 C 10.22032642364502 70.96985626220703 8.841839790344238 69.54560852050781 7.441592216491699 68.03534698486328 C 3.073740243911743 63.32429504394531 2.174746751785278 61.75035095214844 2.000003099441528 61.37138366699219 L 2.000003099441528 3.848445653915405 C 2.000003099441528 3.334390163421631 2.513458728790283 2.909234523773193 2.734214305877686 2.750301122665405 C 3.396547555923462 2.273478984832764 4.348336696624756 2.000001192092896 5.345558643341064 2.000001192092896 L 17.10578155517578 2.000001192092896 C 18.10300254821777 2.000001192092896 19.0547924041748 2.273478984832764 19.71712493896484 2.750301122665405 C 19.93788146972656 2.909234523773193 20.45133590698242 3.334390163421631 20.45133590698242 3.848445653915405 L 20.45133590698242 61.36928558349609 C 20.2744083404541 61.75003433227539 19.36781311035156 63.32598114013672 14.98103618621826 68.032958984375 C 13.57230663299561 69.54450225830078 12.18542385101318 70.96996307373047 11.2003698348999 71.96866607666016 Z" stroke="none"/>
        <path d="M 5.345550537109375 4 C 4.715063095092773 4 4.246709823608398 4.167739868164062 4.000003814697266 4.309036254882812 L 4.000003814697266 60.84187316894531 C 4.415815353393555 61.48868942260742 5.655811309814453 63.18563079833984 9.165949821472168 66.95284271240234 C 9.873533248901367 67.71224975585938 10.56977272033691 68.44419860839844 11.20416450500488 69.10316467285156 C 11.83804512023926 68.44815826416016 12.53396129608154 67.72039794921875 13.24249649047852 66.96413421630859 C 16.78009796142578 63.18824005126953 18.03122711181641 61.48626708984375 18.45133590698242 60.83676147460938 L 18.45133590698242 4.309043884277344 C 18.20462608337402 4.167739868164062 17.73626327514648 4 17.10577583312988 4 L 5.345550537109375 4 M 5.345550537109375 0 L 17.10577583312988 0 C 20.05804252624512 0 22.45133590698242 1.723007202148438 22.45133590698242 3.848442077636719 L 22.45133590698242 61.57513809204102 C 22.45133590698242 63.70057678222656 11.19669628143311 74.80558013916016 11.19669628143311 74.80558013916016 C 11.19669628143311 74.80558013916016 3.814697265625e-06 63.70057678222656 3.814697265625e-06 61.57513809204102 L 3.814697265625e-06 3.848442077636719 C 3.814697265625e-06 1.723007202148438 2.393283843994141 0 5.345550537109375 0 Z" stroke="none" fill="#111"/>
      </g>
      <path id="Path_687" data-name="Path 687" d="M-791.982,1037.587h18.108" transform="translate(2225.125 2062.839)" fill="none" stroke="#111" stroke-width="4"/>
    </g>
    <g id="Group_158" data-name="Group 158" transform="translate(816 3969.27)">
      <path id="Path_702" data-name="Path 702" d="M7.494,21.671h3.218V18.788A7.606,7.606,0,0,0,17.456,11c0-8.133-11.391-7.5-11.391-11.843a2.545,2.545,0,0,1,2.85-2.511A4.1,4.1,0,0,1,12.739-.51L17.119-2.5a8.31,8.31,0,0,0-6.408-5.58V-10.21H7.494v2.1C3.333-7.552.787-4.706.787-.772c0,8.4,11.316,7.646,11.316,12.144,0,1.686-1.166,2.7-3.112,2.7a4.9,4.9,0,0,1-4.535-3.336L0,12.908A8.727,8.727,0,0,0,7.494,18.9Z" transform="translate(0 0)"/>
    </g>
    <line id="Line_29" data-name="Line 29" x1="13" transform="translate(837.856 3971.5)" fill="none" stroke="#111" stroke-width="4"/>
    <line id="Line_30" data-name="Line 30" x1="23" transform="translate(837.856 3981.5)" fill="none" stroke="#111" stroke-width="4"/>
  </g>
</svg>
