<svg xmlns="http://www.w3.org/2000/svg" width="60.037" height="73.554" viewBox="0 0 60.037 73.554">
  <g id="Group_151" data-name="Group 151" transform="translate(-855.963 -3498)">
    <g id="Union_3" data-name="Union 3" transform="translate(-1369 1438)" fill="none">
      <path d="M2236.185,2133.554c-6.414-5.316-11.185-13.26-11.185-22.555a30.007,30.007,0,0,1,18-27.5V2060h24v23.5a30.007,30.007,0,0,1,7.781,50.058Z" stroke="none"/>
      <path d="M 2273.194580078125 2129.554443359375 C 2275.489013671875 2127.274169921875 2277.318359375 2124.670654296875 2278.64306640625 2121.79736328125 C 2280.207275390625 2118.405029296875 2281.000244140625 2114.772216796875 2281.000244140625 2110.99951171875 C 2281.000244140625 2105.84228515625 2279.49462890625 2100.85986328125 2276.646240234375 2096.5908203125 C 2273.86474609375 2092.421630859375 2269.975341796875 2089.1611328125 2265.39892578125 2087.161865234375 L 2263.000244140625 2086.11376953125 L 2263.000244140625 2064.000244140625 L 2246.999755859375 2064.000244140625 L 2246.999755859375 2086.113525390625 L 2244.601318359375 2087.161376953125 C 2240.02490234375 2089.1611328125 2236.135498046875 2092.421630859375 2233.353759765625 2096.5908203125 C 2230.50537109375 2100.85986328125 2228.999755859375 2105.84228515625 2228.999755859375 2110.99951171875 C 2228.999755859375 2114.778076171875 2229.918701171875 2118.450439453125 2231.731201171875 2121.914794921875 C 2233.189697265625 2124.7021484375 2235.23095703125 2127.320556640625 2237.679443359375 2129.554443359375 L 2273.194580078125 2129.554443359375 M 2274.781494140625 2133.554443359375 C 2267.245849609375 2133.554443359375 2243.587646484375 2133.554443359375 2236.18505859375 2133.554443359375 C 2229.770751953125 2128.238037109375 2224.999755859375 2120.294677734375 2224.999755859375 2110.99951171875 C 2224.999755859375 2098.69775390625 2232.404296875 2088.12548828125 2242.999755859375 2083.49609375 L 2242.999755859375 2060.000244140625 L 2267.000244140625 2060.000244140625 L 2267.000244140625 2083.496337890625 C 2277.595947265625 2088.12548828125 2285.000244140625 2098.69775390625 2285.000244140625 2110.99951171875 C 2285.000244140625 2119.880859375 2281.140869140625 2127.860107421875 2274.781494140625 2133.554443359375 Z" stroke="none" fill="#111"/>
    </g>
    <path id="Path_692" data-name="Path 692" d="M-1277.7,1444h33.4" transform="translate(2147 2056)" fill="none" stroke="#111" stroke-width="4"/>
    <path id="Path_693" data-name="Path 693" d="M-1289.749,1495.619s9.292-7.821,20.714-7.821,9.668,6.764,35.721,6.764" transform="translate(2147 2054)" fill="none" stroke="#111" stroke-width="4"/>
  </g>
</svg>
