<svg xmlns="http://www.w3.org/2000/svg" width="22.361" height="22.361" viewBox="0 0 22.361 22.361">
  <g id="Icon_feather-instagram" data-name="Icon feather-instagram" transform="translate(1 1)">
    <path id="Path_360" data-name="Path 360" d="M8.09,3H18.27a5.09,5.09,0,0,1,5.09,5.09v10.18a5.09,5.09,0,0,1-5.09,5.09H8.09A5.09,5.09,0,0,1,3,18.271V8.09A5.09,5.09,0,0,1,8.09,3Z" transform="translate(-3 -3)" fill="none" stroke="#fff" stroke-linecap="round" stroke-linejoin="round" stroke-width="2"/>
    <path id="Path_361" data-name="Path 361" d="M20.165,15.41a4.072,4.072,0,1,1-3.431-3.431,4.072,4.072,0,0,1,3.431,3.431Z" transform="translate(-5.913 -5.871)" fill="none" stroke="#fff" stroke-linecap="round" stroke-linejoin="round" stroke-width="2"/>
    <path id="Path_362" data-name="Path 362" d="M26.25,9.75h0" transform="translate(-10.471 -5.169)" fill="none" stroke="#fff" stroke-linecap="round" stroke-linejoin="round" stroke-width="2"/>
  </g>
</svg>
