<?xml version="1.0" encoding="utf-8"?>
<!-- Generator: Adobe Illustrator 16.0.3, SVG Export Plug-In . SVG Version: 6.00 Build 0)  -->
<!DOCTYPE svg PUBLIC "-//W3C//DTD SVG 1.1//EN" "http://www.w3.org/Graphics/SVG/1.1/DTD/svg11.dtd">
<svg version="1.1" id="Layer_1" xmlns="http://www.w3.org/2000/svg" xmlns:xlink="http://www.w3.org/1999/xlink" x="0px" y="0px"
	 width="283.465px" height="283.465px" viewBox="0 0 283.465 283.465" enable-background="new 0 0 283.465 283.465"
	 xml:space="preserve">
<g>
	<path d="M195.13,159.781c-0.685,0-1.354,0.223-1.52,0.377l0.106,1.203c0.192-0.119,0.521-0.254,0.83-0.254
		c0.495,0,0.624,0.346,0.624,0.876v5.721h1.556v-4.441c0.206-1.037,0.651-2.052,1.754-2.052c0.686,0,1.188,0.225,1.355,0.474
		l0.282-1.366c-0.165-0.27-0.687-0.537-1.416-0.537c-1.042,0-1.623,0.52-2.022,1.338
		C196.543,160.213,196.021,159.781,195.13,159.781 M185.05,163.831c0-1.592,0.999-2.699,2.562-2.699
		c0.865,0,1.671,0.437,2.072,0.885v3.598c-0.449,0.469-1.207,0.882-2.072,0.882C186.066,166.496,185.05,165.395,185.05,163.831
		 M183.489,163.831c0,2.338,1.488,4.007,3.725,4.007c1.099,0,2.021-0.505,2.571-1.134c0.182,0.761,0.66,1.146,1.505,1.146
		c0.567,0,1.149-0.169,1.507-0.354l-0.104-1.24c-0.272,0.165-0.535,0.276-0.835,0.276c-0.458,0-0.623-0.363-0.623-0.885v-5.733
		h-1.551v0.792c-0.549-0.548-1.402-0.925-2.47-0.925C184.978,159.781,183.489,161.463,183.489,163.831 M166.026,159.914h-1.549v7.79
		h1.549v-4.813c0.271-0.842,1.044-1.68,2.141-1.68c1.285,0,1.924,0.924,1.924,2.253v2.529c0,1.28,0.535,1.857,1.592,1.857
		c0.582,0,1.149-0.169,1.505-0.354l-0.104-1.24c-0.267,0.165-0.551,0.276-0.818,0.276c-0.475,0-0.623-0.363-0.623-0.885v-2.425
		c0-1.934-0.924-3.441-2.938-3.441c-1.2,0-2.124,0.52-2.678,1.326V159.914z M161.072,159.914h-1.55v6.079
		c0,1.28,0.549,1.857,1.591,1.857c0.686,0,1.36-0.228,1.52-0.354l-0.117-1.24c-0.166,0.12-0.507,0.276-0.82,0.276
		c-0.479,0-0.623-0.363-0.623-0.885V159.914z M159.342,157.696c0,0.642,0.401,0.877,0.967,0.877c0.583,0,0.954-0.235,0.954-0.877
		c0-0.639-0.371-0.862-0.954-0.862C159.743,156.834,159.342,157.058,159.342,157.696 M151.647,157.13h-1.546v10.574h1.546v-3.188
		c0.695,0,1.354-0.073,1.951-0.214l2.219,3.401h1.688v-0.255l-2.534-3.681c1.199-0.682,2.009-1.916,2.334-3.854h-1.546
		c-0.552,2.727-2.107,3.204-4.112,3.219V157.13z M128.319,163.831c0,2.338,1.268,4.08,4.195,4.08c1.274,0,2.432-0.43,3.246-1.069
		l-0.608-1.228c-0.639,0.494-1.592,0.926-2.459,0.926c-1.977,0-2.781-1.22-2.781-2.752c0-1.549,0.937-2.713,2.514-2.713
		c1.346,0,1.969,0.757,2.036,1.951l1.391-0.323c-0.073-1.775-1.251-2.996-3.438-2.996
		C129.927,159.707,128.319,161.453,128.319,163.831 M125.444,159.914h-1.547v6.079c0,1.28,0.55,1.857,1.598,1.857
		c0.679,0,1.351-0.228,1.509-0.354l-0.112-1.24c-0.165,0.12-0.511,0.276-0.82,0.276c-0.475,0-0.628-0.363-0.628-0.885V159.914z
		 M123.718,157.696c0,0.642,0.402,0.877,0.973,0.877c0.577,0,0.95-0.235,0.95-0.877c0-0.639-0.373-0.862-0.95-0.862
		C124.12,156.834,123.718,157.058,123.718,157.696 M93.994,163.531c0-1.353,0.995-2.399,2.556-2.399
		c0.866,0,1.633,0.448,2.077,0.917v2.974c-0.449,0.461-1.226,0.877-2.077,0.877C94.989,165.899,93.994,164.872,93.994,163.531
		 M92.411,163.531c0,2.045,1.49,3.725,3.721,3.725c1.061,0,1.927-0.389,2.495-0.91v0.832c0,1.507-1.047,2.101-2.227,2.101
		c-1.207,0-2.114-0.506-2.602-0.817l-0.345,1.384c0.488,0.258,1.412,0.807,2.947,0.807c2.176,0,3.766-1.294,3.766-3.784v-6.953
		h-1.539v0.792c-0.558-0.548-1.393-0.925-2.495-0.925C93.901,159.781,92.411,161.463,92.411,163.531 M86.326,159.781
		c-0.692,0-1.355,0.223-1.52,0.377l0.102,1.203c0.197-0.119,0.522-0.254,0.835-0.254c0.496,0,0.624,0.346,0.624,0.876v5.721h1.552
		v-4.441c0.205-1.037,0.654-2.052,1.756-2.052c0.68,0,1.192,0.225,1.355,0.474l0.279-1.366c-0.16-0.27-0.68-0.537-1.413-0.537
		c-1.041,0-1.617,0.52-2.024,1.338C87.743,160.213,87.218,159.781,86.326,159.781 M72.002,147.209h2.33V122.73h-2.33L58.81,136.347
		L45.607,122.73h-2.32v24.479h2.32v-21.155l11.59,11.956h3.224l11.581-11.956V147.209z M79.404,161.132
		c1.594,0,2.675,1.163,2.675,2.699c0,1.506-1.081,2.65-2.675,2.65c-1.566,0-2.654-1.145-2.654-2.65
		C76.75,162.295,77.838,161.132,79.404,161.132 M79.404,159.707c-2.412,0-4.158,1.756-4.158,4.124c0,2.338,1.746,4.08,4.158,4.08
		c2.439,0,4.165-1.742,4.165-4.08C83.569,161.463,81.843,159.707,79.404,159.707 M97.974,120.114l4.404-7.3h-2.714l-4.405,7.3
		H97.974z M101.863,136.239H88.256l6.787-11.262L101.863,136.239z M108.505,147.209h2.715L96.395,122.73h-2.71l-14.761,24.479h2.714
		l5.214-8.641h16.426L108.505,147.209z M108.624,165.614c-0.443,0.469-1.2,0.882-2.066,0.882c-1.553,0-2.563-1.102-2.563-2.665
		c0-1.592,1.001-2.699,2.563-2.699c0.866,0,1.665,0.437,2.066,0.885V165.614z M110.236,167.851c0.572,0,1.145-0.169,1.499-0.354
		l-0.101-1.24c-0.274,0.165-0.537,0.276-0.826,0.276c-0.469,0-0.634-0.363-0.634-0.885v-5.733h-1.55v0.792
		c-0.551-0.548-1.397-0.925-2.473-0.925c-2.234,0-3.722,1.682-3.722,4.05c0,2.338,1.488,4.007,3.722,4.007
		c1.106,0,2.03-0.505,2.576-1.134C108.907,167.465,109.386,167.851,110.236,167.851 M117.76,159.781
		c-1.201,0-2.123,0.52-2.675,1.326v-1.193h-1.55v7.79h1.55v-4.813c0.269-0.842,1.041-1.68,2.144-1.68
		c1.279,0,1.922,0.924,1.922,2.253v2.529c0,1.28,0.531,1.857,1.594,1.857c0.581,0,1.143-0.169,1.499-0.354l-0.104-1.24
		c-0.263,0.165-0.552,0.276-0.814,0.276c-0.48,0-0.633-0.363-0.633-0.885v-2.425C120.693,161.289,119.775,159.781,117.76,159.781
		 M139.088,134.994c0,5.541-4.554,9.889-10.358,9.889h-10.339v-19.829h10.339C134.534,125.054,139.088,129.416,139.088,134.994
		 M141.408,134.994c0-6.875-5.569-12.26-12.678-12.264h-12.663v24.479h12.663C135.839,147.209,141.408,141.842,141.408,134.994
		 M144.989,159.781c-2.066,0-3.345,1.03-3.345,2.473c0,1.175,0.67,1.771,1.933,2.083l1.506,0.36
		c0.726,0.175,1.219,0.368,1.219,0.862c0,0.621-0.576,0.995-1.604,0.995c-1.012,0-1.95-0.374-2.589-0.714l-0.319,1.337
		c0.598,0.304,1.638,0.673,2.962,0.673c1.971,0,3.098-0.969,3.098-2.396c0-1.117-0.624-1.741-1.932-2.071l-1.607-0.371
		c-0.749-0.181-1.119-0.325-1.119-0.877c0-0.672,0.733-1.046,1.686-1.046c0.85,0,1.846,0.283,2.499,0.616l0.417-1.354
		C147.21,160.063,145.994,159.781,144.989,159.781 M165.762,136.241h-13.625l6.791-11.262L165.762,136.241z M172.394,147.209h2.716
		l-14.834-24.475h-2.709l-14.759,24.475h2.721l5.203-8.641h16.428L172.394,147.209z M178.413,159.707
		c-2.489,0-4.092,1.746-4.092,4.124c0,2.338,1.263,4.08,4.201,4.08c1.256,0,2.421-0.43,3.239-1.069l-0.607-1.228
		c-0.64,0.494-1.592,0.926-2.457,0.926c-1.98,0-2.789-1.22-2.789-2.752c0-1.549,0.938-2.713,2.52-2.713
		c1.339,0,1.963,0.757,2.041,1.951l1.381-0.323C181.777,160.928,180.602,159.707,178.413,159.707 M197.322,136.127h-14.858v-11.072
		h14.858c3.268,0,5.737,2.293,5.737,5.34C203.06,133.557,200.481,136.127,197.322,136.127 M205.648,147.209l-5.606-9.265
		c3.167-1.14,5.332-4.184,5.332-7.549c0-4.369-3.465-7.661-8.052-7.661h-17.18v24.475h2.321v-8.752h14.179l0.958-0.05l5.329,8.802
		H205.648z M207.251,162.703c0,0.128-0.016,0.293-0.032,0.415h-4.405c0.117-1.135,0.968-2.112,2.427-2.112
		C206.642,161.006,207.251,161.809,207.251,162.703 M208.739,162.951c0-1.786-1.101-3.244-3.47-3.244
		c-2.497,0-4.078,1.831-4.078,4.124c0,2.262,1.282,4.08,4.213,4.08c1.306,0,2.427-0.4,3.232-1.062l-0.609-1.111
		c-0.604,0.442-1.503,0.863-2.58,0.863c-1.695,0-2.517-0.918-2.665-2.28h5.792C208.662,164.044,208.739,163.413,208.739,162.951
		 M231.516,136.241h-13.607l6.792-11.262L231.516,136.241z M240.872,147.209l-14.826-24.475h-2.713l-14.752,24.475h2.719
		l5.203-8.641h16.427l5.228,8.641H240.872z"/>
</g>
</svg>
