<?xml version="1.0" encoding="utf-8"?>
<svg version="1.1" id="Layer_1" xmlns="http://www.w3.org/2000/svg" xmlns:xlink="http://www.w3.org/1999/xlink" x="0px" y="0px"
	 viewBox="0 0 432 78.32" style="enable-background:new 0 0 432 78.32;" xml:space="preserve">
<g>
	<path d="M157.61,0c-12.23,0-21.79,9.14-21.79,20.48c0,11.52,9.56,20.66,21.79,20.66c12.23,0,21.97-9.14,21.97-20.66
		C179.58,9.14,169.84,0,157.61,0z M157.61,35.2c-8.31,0-14.78-6.65-14.78-14.72c0-8.01,6.47-14.54,14.78-14.54
		c8.37,0,14.96,6.53,14.96,14.54C172.58,28.56,165.99,35.2,157.61,35.2z"/>
	<path d="M35.68,13.06c0-2.97-1.13-5.7-3.09-7.78c-2.49-2.67-6.06-4.1-11.22-4.1H0v38.77h6.65v-14.9h13.77l8.31,14.9h7.66
		l-9.26-15.79C32.24,22.26,35.68,18.29,35.68,13.06z M22.56,19.12H6.65V7.12h14.72c2.08,0,4.21,0.18,6.06,2.08
		c1.01,1.07,1.6,2.37,1.6,3.86C29.03,16.39,26.06,19.12,22.56,19.12z"/>
	<polygon points="111.67,39.95 129.65,1.19 122.41,1.19 108.99,31.47 108.64,31.47 95.22,1.19 87.62,1.19 105.61,39.95 	"/>
	<polygon points="55.21,22.68 70.11,22.68 70.11,16.74 55.21,16.74 55.21,7.12 80.02,7.12 80.02,1.19 48.56,1.19 48.56,39.95
		81.45,39.95 81.45,34.02 55.21,34.02 	"/>
	<polygon points="222.03,34.02 198.22,34.02 198.22,1.19 191.57,1.19 191.57,39.95 222.03,39.95 	"/>
	<rect x="322.59" y="1.19" width="6.65" height="38.77"/>
	<path d="M247.91,41.14c9.86,0,17.22-5.4,17.22-14.96V1.19h-6.65v24.99c0,5.82-4.63,9.02-10.57,9.02c-5.88,0-10.51-3.2-10.51-9.02
		V1.19h-6.65v24.99C230.75,35.74,238.11,41.14,247.91,41.14z"/>
	<path d="M363.08,0c-12.23,0-21.79,9.14-21.79,20.48c0,11.52,9.56,20.66,21.79,20.66c12.23,0,21.97-9.14,21.97-20.66
		C385.04,9.14,375.31,0,363.08,0z M363.08,35.2c-8.31,0-14.78-6.65-14.78-14.72c0-8.01,6.47-14.54,14.78-14.54
		c8.37,0,14.96,6.53,14.96,14.54C378.04,28.56,371.45,35.2,363.08,35.2z"/>
	<polygon points="274.92,7.12 290.18,7.12 290.18,39.95 296.82,39.95 296.82,7.12 312.02,7.12 312.02,1.19 274.92,1.19 	"/>
	<polygon points="425.35,1.19 425.35,28.08 425.29,28.08 402.91,1.19 397.03,1.19 397.03,39.95 403.68,39.95 403.68,13.06
		403.74,13.06 426.12,39.95 432,39.95 432,1.19 	"/>
	<path d="M280.11,62.65h-7.29v15.2h7.29c2.75,0,4.12-0.7,5.42-1.86c1.44-1.4,2.23-3.47,2.23-5.75c0-2.21-0.72-4.17-2.07-5.56
		C284.39,63.42,282.86,62.65,280.11,62.65z M283.49,74.34c-0.91,0.74-1.56,1.19-3.49,1.19h-4.56V64.98H280
		c1.91,0,2.72,0.49,3.58,1.28c0.95,0.98,1.47,2.4,1.47,3.98C285.05,71.87,284.46,73.36,283.49,74.34z"/>
	<polygon points="199.58,68.52 195.23,62.65 191.92,62.65 198.16,70.85 198.16,77.85 200.77,77.85 200.77,70.85 207,62.65
		203.93,62.65 	"/>
	<path d="M115.04,69.47c1.09-0.44,1.93-1.7,1.93-3.1c0-0.93-0.37-1.75-1.02-2.4c-0.74-0.75-1.93-1.33-3.65-1.33h-9.19v15.2h9.38
		c2.19,0,3.19-0.61,3.93-1.3c1.02-0.98,1.4-2.12,1.4-3.23C117.81,71.45,116.81,69.89,115.04,69.47z M105.71,64.98h6.31
		c0.72,0,1.28,0.16,1.7,0.58c0.33,0.33,0.54,0.79,0.54,1.3c0,0.56-0.23,1.12-0.63,1.51c-0.42,0.42-0.98,0.56-1.61,0.56h-6.31V64.98z
		 M114.46,74.83c-0.47,0.47-1.16,0.7-1.89,0.7h-6.87v-4.49h6.87c0.77,0,1.44,0.33,1.91,0.82c0.37,0.4,0.61,0.88,0.61,1.44
		C115.09,73.85,114.86,74.43,114.46,74.83z"/>
	<polygon points="324.22,73.2 324.19,73.2 315.42,62.65 313.12,62.65 313.12,77.85 315.72,77.85 315.72,67.31 315.75,67.31
		324.52,77.85 326.83,77.85 326.83,62.65 324.22,62.65 	"/>
	<path d="M299.8,62.19c-4.79,0-8.54,3.58-8.54,8.03c0,4.51,3.75,8.1,8.54,8.1c4.79,0,8.61-3.59,8.61-8.1
		C308.41,65.77,304.6,62.19,299.8,62.19z M299.8,75.99c-3.26,0-5.8-2.61-5.8-5.77c0-3.14,2.54-5.7,5.8-5.7
		c3.28,0,5.87,2.56,5.87,5.7C305.67,73.38,303.08,75.99,299.8,75.99z"/>
	<polygon points="175.49,64.98 181.47,64.98 181.47,77.85 184.08,77.85 184.08,64.98 190.03,64.98 190.03,62.65 175.49,62.65 	"/>
	<polygon points="219.48,62.65 216.87,62.65 216.87,77.85 228.81,77.85 228.81,75.52 219.48,75.52 	"/>
	<path d="M239.73,62.19c-4.79,0-8.54,3.58-8.54,8.03c0,4.51,3.75,8.1,8.54,8.1c4.79,0,8.61-3.59,8.61-8.1
		C248.34,65.77,244.52,62.19,239.73,62.19z M239.73,75.99c-3.26,0-5.8-2.61-5.8-5.77c0-3.14,2.54-5.7,5.8-5.7
		c3.28,0,5.87,2.56,5.87,5.7C245.59,73.38,243.01,75.99,239.73,75.99z"/>
	<polygon points="264.14,73.2 264.12,73.2 255.35,62.65 253.04,62.65 253.04,77.85 255.65,77.85 255.65,67.31 255.67,67.31
		264.45,77.85 266.75,77.85 266.75,62.65 264.14,62.65 	"/>
	<polygon points="125.54,71.08 131.38,71.08 131.38,68.75 125.54,68.75 125.54,64.98 135.27,64.98 135.27,62.65 122.93,62.65
		122.93,77.85 135.83,77.85 135.83,75.52 125.54,75.52 	"/>
	<path d="M169.04,72.45c0,2.28-1.82,3.54-4.14,3.54c-2.3,0-4.12-1.26-4.12-3.54v-9.8h-2.61v9.8c0,3.75,2.89,5.87,6.73,5.87
		c3.86,0,6.75-2.12,6.75-5.87v-9.8h-2.61V72.45z"/>
	<path d="M145.35,62.65l-7.05,15.2h2.72l1.82-4.1h7.24l1.84,4.1h2.86l-7.05-15.2H145.35z M143.76,71.66l2.63-5.89h0.14l2.61,5.89
		H143.76z"/>
</g>
</svg>
