<?xml version="1.0" encoding="UTF-8" standalone="no"?><!DOCTYPE svg PUBLIC "-//W3C//DTD SVG 1.1//EN" "http://www.w3.org/Graphics/SVG/1.1/DTD/svg11.dtd"><svg width="100%" height="100%" viewBox="0 0 802 175" version="1.1" xmlns="http://www.w3.org/2000/svg" xmlns:xlink="http://www.w3.org/1999/xlink" xml:space="preserve" xmlns:serif="http://www.serif.com/" style="fill-rule:evenodd;clip-rule:evenodd;stroke-linejoin:round;stroke-miterlimit:2;"><g id="Group_171"><g id="S-BRANDS"><text x="225.708px" y="119.456px" style="font-family:'DexaPro-SemiBold', 'Dexa Pro';font-weight:600;font-size:99.919px;fill:#111;">S<tspan x="292.553px " y="119.456px ">-</tspan>BRAND<tspan x="716.708px " y="119.456px ">S</tspan></text></g><path id="Path_38909" d="M16.258,122.833l0,-23.916l82.733,47.805l0.028,-0.028l82.701,-47.658l-0.036,23.825l-82.669,47.697l-82.757,-47.725Z" style="fill-rule:nonzero;"/><path id="Path_38910" d="M40.063,61.427l0,3.529l79.583,45.963l-20.683,11.918l-82.733,-47.701l0,-23.889l82.757,-47.697l82.757,47.725l-0,23.917l-41.323,23.86l-0.112,-0.056l-61.981,-35.806l20.663,-11.919l41.322,23.861l17.462,-10.032l0,-3.781l-58.732,-33.936l-0.056,0.028" style="fill-rule:nonzero;"/></g></svg>