<?xml version="1.0" encoding="UTF-8"?>
<svg xmlns="http://www.w3.org/2000/svg" xmlns:xlink="http://www.w3.org/1999/xlink" width="690.11pt" height="186.95pt" viewBox="0 0 690.11 186.95" version="1.1">
<defs>
<clipPath id="clip1">
  <path d="M 0 132 L 690.109375 132 L 690.109375 186.949219 L 0 186.949219 Z M 0 132 "/>
</clipPath>
</defs>
<g id="surface1">
<path style=" stroke:none;fill-rule:nonzero;fill:rgb(89.7995%,28.999329%,51.799011%);fill-opacity:1;" d="M 87.839844 3.128906 L 8.992188 3.128906 L 8.992188 16.492188 L 38.394531 16.492188 L 38.394531 101.757813 L 58.707031 101.757813 L 58.707031 16.492188 L 87.839844 16.492188 L 87.839844 3.128906 "/>
<path style=" stroke:none;fill-rule:nonzero;fill:rgb(89.7995%,28.999329%,51.799011%);fill-opacity:1;" d="M 160.007813 52.351563 C 158.941406 92.667969 141.835938 92.183594 134.351563 93.09375 L 133.191406 93.09375 C 125.707031 92.183594 108.601563 92.667969 107.53125 52.351563 C 106.464844 12.03125 133.191406 12.484375 133.191406 12.484375 L 134.351563 12.484375 C 134.351563 12.484375 161.078125 12.03125 160.007813 52.351563 Z M 181.394531 52.441406 C 181.660156 -1.683594 134.351563 0.0078125 134.351563 0.0078125 L 133.210938 0.0078125 C 133.210938 0.0078125 85.902344 -1.683594 86.167969 52.441406 C 86.167969 52.441406 84.03125 103.09375 133.210938 104.699219 L 134.351563 104.699219 C 183.53125 103.09375 181.394531 52.441406 181.394531 52.441406 "/>
<path style=" stroke:none;fill-rule:nonzero;fill:rgb(89.7995%,28.999329%,51.799011%);fill-opacity:1;" d="M 295.527344 3.128906 L 275.210938 3.128906 L 275.210938 101.757813 L 295.527344 101.757813 L 295.527344 3.128906 "/>
<path style=" stroke:none;fill-rule:nonzero;fill:rgb(89.7995%,28.999329%,51.799011%);fill-opacity:1;" d="M 214.535156 53.617188 L 214.535156 15.5625 C 221.695313 13.847656 242.414063 10.90625 243.136719 34.050781 C 243.820313 55.992188 223.398438 55.050781 214.535156 53.617188 Z M 263.984375 34.402344 C 263.449219 0.1875 232.179688 3.128906 232.179688 3.128906 L 194.488281 3.128906 L 194.488281 101.757813 L 214.535156 101.757813 L 214.535156 63.199219 C 227.710938 68.1875 264.453125 64.363281 263.984375 34.402344 "/>
<path style=" stroke:none;fill-rule:nonzero;fill:rgb(89.7995%,28.999329%,51.799011%);fill-opacity:1;" d="M 426.765625 53.617188 L 426.765625 15.5625 C 433.921875 13.847656 454.640625 10.90625 455.363281 34.050781 C 456.050781 55.992188 435.628906 55.050781 426.765625 53.617188 Z M 458.273438 61.234375 C 468.296875 56.929688 476.433594 48.601563 476.214844 34.402344 C 475.679688 0.1875 444.40625 3.128906 444.40625 3.128906 L 406.71875 3.128906 L 406.71875 101.757813 L 426.765625 101.757813 L 426.765625 63.199219 C 429.476563 64.226563 433.183594 64.878906 437.363281 65.007813 L 461.78125 101.757813 L 485.035156 101.757813 L 458.273438 61.234375 "/>
<path style=" stroke:none;fill-rule:nonzero;fill:rgb(89.7995%,28.999329%,51.799011%);fill-opacity:1;" d="M 388.808594 26.382813 C 388.808594 26.382813 381.859375 12.484375 362.347656 12.75 C 342.835938 13.019531 330.539063 28.785156 331.34375 52.441406 C 332.144531 76.097656 338.824219 91.867188 363.953125 91.867188 C 363.953125 91.867188 379.1875 92.136719 390.144531 79.039063 L 396.027344 83.582031 C 396.027344 83.582031 380.980469 111.113281 345.605469 101.757813 C 310.226563 92.402344 309.425781 62.550781 309.691406 52.351563 C 309.960938 42.152344 312.898438 0.988281 360.476563 1.257813 C 360.476563 1.257813 383.730469 1.257813 394.691406 20.503906 L 388.808594 26.382813 "/>
<path style=" stroke:none;fill-rule:nonzero;fill:rgb(89.7995%,28.999329%,51.799011%);fill-opacity:1;" d="M 555.597656 42.953125 L 508.019531 42.953125 C 508.019531 42.953125 513.097656 11.414063 535.285156 13.019531 C 557.46875 14.621094 555.597656 42.953125 555.597656 42.953125 Z M 554.527344 6.601563 C 531.007813 -4.625 513.367188 6.601563 506.683594 10.078125 C 500.003906 13.550781 486.636719 29.589844 486.371094 50.972656 C 486.101563 72.355469 493.855469 86.789063 506.683594 95.34375 C 519.515625 103.894531 533.679688 104.164063 548.914063 101.757813 C 564.152344 99.351563 573.238281 84.117188 573.238281 84.117188 L 566.824219 78.769531 C 566.824219 78.769531 555.597656 96.679688 533.144531 91.601563 C 510.695313 86.523438 508.554688 66.894531 508.289063 54.253906 L 569.230469 54.253906 C 569.230469 54.253906 575.378906 54.714844 575.378906 46.964844 C 575.378906 46.964844 578.050781 17.828125 554.527344 6.601563 "/>
<path style=" stroke:none;fill-rule:nonzero;fill:rgb(89.7995%,28.999329%,51.799011%);fill-opacity:1;" d="M 582.058594 103.0625 L 589.8125 4.464844 L 604.246094 4.464844 L 632.308594 60.328125 L 660.910156 4.464844 L 674.542969 4.464844 L 682.027344 103.0625 L 661.980469 103.0625 L 658.503906 38.679688 L 636.546875 80.59375 C 635.585938 82.429688 633.683594 83.582031 631.609375 83.582031 L 627.359375 83.582031 C 625.304688 83.582031 623.417969 82.453125 622.449219 80.640625 L 600.234375 39.210938 L 597.296875 103.0625 L 582.058594 103.0625 "/>
<g clip-path="url(#clip1)" clip-rule="nonzero">
<path style=" stroke:none;fill-rule:nonzero;fill:rgb(89.7995%,28.999329%,51.799011%);fill-opacity:1;" d="M 7.023438 145.398438 C 7.023438 145.398438 43.863281 171.769531 209.921875 156.804688 C 375.980469 141.835938 497.140625 127.582031 685.296875 134.710938 C 685.296875 134.710938 689.992188 134.347656 689.992188 138.089844 C 689.992188 138.089844 691.339844 141.027344 684.925781 140.761719 C 684.925781 140.761719 593.980469 136.847656 356.648438 168.917969 C 356.648438 168.917969 191.304688 191.332031 137.136719 186.183594 C 82.972656 181.035156 64.046875 183.886719 1.214844 151.8125 C 1.214844 151.8125 -1.519531 150.386719 1.214844 146.824219 C 3.953125 143.261719 7.023438 145.398438 7.023438 145.398438 "/>
</g>
</g>
</svg>
