<?xml version="1.0" encoding="utf-8"?>
<!-- Generator: Adobe Illustrator 16.0.0, SVG Export Plug-In . SVG Version: 6.00 Build 0)  -->
<!DOCTYPE svg PUBLIC "-//W3C//DTD SVG 1.1//EN" "http://www.w3.org/Graphics/SVG/1.1/DTD/svg11.dtd">
<svg version="1.1" id="Layer_1" xmlns="http://www.w3.org/2000/svg" xmlns:xlink="http://www.w3.org/1999/xlink" x="0px" y="0px"
	 width="3000px" height="3000px" viewBox="0 0 3000 3000" enable-background="new 0 0 3000 3000" xml:space="preserve">
<g>
	<path d="M2074.475,1681.459v-254.224h-324.408v254.224h-92.324v-567.472h92.324v243.249h324.408v-243.249h92.209v567.472H2074.475z
		"/>
	<path d="M635.092,1843.037l18.73-46.779l18.722,46.779H635.092z M689.843,1886.219h14.433l-50.35-118.82l-50.458,118.82h14.429
		l12.904-32.332h46.048L689.843,1886.219z"/>
	<path d="M1450.315,1843.037l18.727-46.779l18.726,46.779H1450.315z M1504.965,1886.219h14.438l-50.36-118.82l-50.45,118.82h14.528
		l12.89-32.332h46.055L1504.965,1886.219z"/>
	<path d="M2021.77,1774.57h19.318v111.648h-19.318V1774.57z"/>
	<path d="M851.131,1113.987h92.304v567.472h-92.304V1113.987z"/>
	<path d="M627.01,1113.782l-181.957,384.48c0.927-0.92-183.897-384.48-183.897-384.48h-95.582l278.763,567.677l278.254-567.677
		H627.01z"/>
	<path d="M1374.588,1605.508c-135.495,0-234.665-87.086-234.665-207.74c0-120.658,99.17-207.739,234.665-207.739
		c59.66,0,114.406,18.928,156.89,50.552v-89.96c-46.369-23.43-99.889-36.735-156.89-36.735
		c-176.024,0-318.682,127.102-318.682,283.785c0,156.781,142.657,283.789,318.682,283.789c57.1,0,110.62-13.418,156.89-36.744
		v-89.754C1488.896,1586.479,1434.248,1605.508,1374.588,1605.508"/>
	<path d="M830.256,1886.219v-111.748h18.422c24.857,0,37.344,10.018,37.344,30.184c0,9.713-3.679,17-10.946,21.807
		c6.551,1.529,11.662,4.994,15.458,10.338c3.777,5.316,4.494,11.447,4.494,18.197c0,10.545-3.885,18.529-11.664,23.846
		c-7.053,4.834-15.244,7.287-27.113,7.287h-25.995V1886.219z M840.998,1785.428v36.012h6.455c8.485,0,14.626-1.012,18.413-2.965
		c5.119-2.766,7.67-5.844,7.67-13.82c0-7.68-2.453-13.605-7.259-16.264c-3.59-1.943-9.829-2.963-18.734-2.963H840.998z
		 M840.998,1832.287v43.297h14.125c19.128,0,27.427-7.68,27.427-21.393c0-13.203-8.896-22.021-29.064-22.021h-12.487V1832.287z"/>
	<path d="M1076.782,1771.096c16.38,0,30.398,5.621,41.963,16.883c11.664,11.26,17.5,24.857,17.5,40.836
		c0,15.959-5.835,29.467-17.5,40.639c-11.672,11.145-25.699,16.766-41.963,16.766c-16.372,0-30.389-5.621-41.955-16.766
		c-11.664-11.172-17.51-24.787-17.51-40.639c0-15.979,5.846-29.576,17.51-40.836
		C1046.393,1776.717,1060.411,1771.096,1076.782,1771.096 M1076.782,1782.563c-12.998,0-24.044,4.494-33.155,13.508
		c-9.113,8.996-13.606,19.846-13.606,32.537c0,12.586,4.601,23.436,13.714,32.432c9.102,9.014,20.148,13.613,33.047,13.613
		c12.89,0,23.943-4.484,33.056-13.613c9.113-8.996,13.713-19.846,13.713-32.432c0-12.691-4.511-23.541-13.606-32.537
		C1100.834,1787.057,1089.779,1782.563,1076.782,1782.563"/>
	<path d="M1838.379,1771.096c16.371,0,30.389,5.621,41.953,16.883c11.656,11.26,17.508,24.857,17.508,40.836
		c0,15.959-5.852,29.467-17.508,40.639c-11.654,11.145-25.689,16.766-41.953,16.766c-16.373,0-30.408-5.621-42.063-16.766
		c-11.664-11.172-17.508-24.787-17.508-40.639c0-15.979,5.844-29.576,17.508-40.836
		C1807.971,1776.717,1822.006,1771.096,1838.379,1771.096 M1838.379,1782.563c-12.998,0-24.053,4.494-33.156,13.508
		c-9.111,8.996-13.623,19.846-13.623,32.537c0,12.586,4.602,23.436,13.73,32.432c9.094,9.014,20.148,13.613,33.049,13.613
		c12.906,0,23.936-4.484,33.047-13.613c9.113-8.996,13.713-19.846,13.713-32.432c0-12.691-4.502-23.541-13.596-32.537
		C1862.414,1787.057,1851.375,1782.563,1838.379,1782.563"/>
	<path d="M2595.463,1788.391l-9.828,6.338c-4.6-8.092-11.055-12.066-19.129-12.066c-5.014,0-9.318,1.637-12.996,4.904
		c-3.68,3.275-5.436,7.367-5.436,12.389c0,4.189,1.945,7.887,5.945,11.055c2.354,1.826,6.15,3.984,11.467,6.338l7.357,3.285
		c8.809,3.885,15.055,7.654,18.734,11.35c5.318,5.209,7.977,11.869,7.977,19.963c0,9.621-3.375,17.695-10.223,24.354
		c-6.75,6.66-15.057,9.92-24.768,9.92c-8.908,0-16.371-2.658-22.621-7.869c-6.238-5.219-10.24-12.182-11.977-20.9l12.076-3.357
		c0.814,5.828,3.285,10.645,7.375,14.637c4.092,3.982,9.094,5.924,14.939,5.924c6.148,0,11.467-2.031,15.961-6.238
		c4.6-4.188,6.865-9.301,6.865-15.449c0-5.828-2.148-10.545-6.338-14.133c-2.684-2.355-7.375-4.996-14.24-7.977l-6.76-2.963
		c-7.77-3.375-13.408-6.75-16.988-10.34c-4.799-4.807-7.152-10.838-7.152-18.125c0-8.379,3.168-15.244,9.406-20.658
		c5.928-5.105,13.098-7.674,21.699-7.674C2579.709,1771.096,2589.332,1776.924,2595.463,1788.391"/>
	<path d="M2360.406,1886.219v-111.543h61.197v11.566h-48.82v33.146h45.115v11.582h-45.115v43.682h48.82v11.566H2360.406z"/>
	<path d="M457.541,1774.676v99.977h30.806v11.566h-43.293v-111.543H457.541z"/>
	<path d="M1653.67,1786.143v100.076h-12.396v-100.076h-27.025v-11.572h66.625v11.572H1653.67z"/>
	<path d="M1260.38,1837.191v49.027h-12.487V1774.57h16.175c27.221,0,40.934,10.24,40.934,30.801c0,8.602-2.568,15.771-7.58,21.393
		c-5.014,5.641-11.87,8.809-20.473,9.408l35.52,50.047h-15.253l-33.774-49.027H1260.38z M1260.38,1786.143v40.111h3.884
		c8.594,0,15.038-1.137,19.443-3.59c5.934-3.168,8.905-8.602,8.905-16.371c0-8.297-2.864-13.92-8.601-16.971
		c-4.092-2.061-10.635-3.08-19.854-3.08h-3.777V1786.143z"/>
	<path d="M2185.613,1837.191v49.027h-12.486V1774.57h16.059c27.221,0,40.836,10.24,40.836,30.801c0,8.602-2.57,15.771-7.582,21.393
		c-5.014,5.641-11.869,8.809-20.445,9.408l35.502,50.047h-15.244l-33.783-49.027H2185.613z M2185.613,1786.143v40.111h3.777
		c8.604,0,15.057-1.137,19.451-3.59c5.936-3.168,8.898-8.602,8.898-16.371c0-8.297-2.865-13.92-8.604-16.971
		c-4.09-2.061-10.633-3.08-19.861-3.08h-3.662V1786.143z"/>
	<path d="M2834.426,1113.987l-251.244,323.586v243.885h-85.447v-243.885l-251.127-323.586h98.633l195.271,252.872l195.262-252.872
		H2834.426z"/>
</g>
</svg>
